<svg xmlns="http://www.w3.org/2000/svg" width="30" height="30" viewBox="0 0 30 30">
  <g id="Group_1694" data-name="Group 1694" transform="translate(-1267 -331)">
    <circle id="Ellipse_93" data-name="Ellipse 93" cx="15" cy="15" r="15" transform="translate(1267 331)" fill="#fff"/>
    <g id="vuesax_bold_edit-2" data-name="vuesax/bold/edit-2" transform="translate(1271.545 334.636)">
      <g id="edit-2" transform="translate(0 0)">
        <path id="Vector" d="M17.045,1.364H.682A.687.687,0,0,1,0,.682.687.687,0,0,1,.682,0H17.045a.687.687,0,0,1,.682.682A.687.687,0,0,1,17.045,1.364Z" transform="translate(2.045 18.636)" fill="#5a607f"/>
        <path id="Vector-2" data-name="Vector" d="M6.5,1.34C4.741-.424,3.014-.469,1.2,1.34L.1,2.44A.379.379,0,0,0,.014,2.8,7.39,7.39,0,0,0,5.041,7.831a.456.456,0,0,0,.109.018.364.364,0,0,0,.264-.109L6.5,6.64A3.758,3.758,0,0,0,7.841,4.013,3.743,3.743,0,0,0,6.5,1.34Z" transform="translate(10.786 1.824)" fill="#5a607f"/>
        <path id="Vector-3" data-name="Vector" d="M11.015,4.982c-.264-.127-.518-.255-.764-.4-.2-.118-.391-.245-.582-.382a5.489,5.489,0,0,1-.509-.391,1.109,1.109,0,0,1-.155-.136,7.688,7.688,0,0,1-.936-.945,1.108,1.108,0,0,1-.136-.164,5.288,5.288,0,0,1-.382-.5A4.992,4.992,0,0,1,7.2,1.527c-.145-.245-.273-.491-.4-.745C6.669.509,6.569.245,6.478,0L.769,5.709a1.094,1.094,0,0,0-.255.5L.024,9.691a1.864,1.864,0,0,0,.464,1.591,1.81,1.81,0,0,0,1.273.491,1.987,1.987,0,0,0,.327-.027l3.491-.491a1.012,1.012,0,0,0,.5-.255l5.709-5.709C11.533,5.2,11.287,5.1,11.015,4.982Z" transform="translate(3.176 5.5)" fill="#5a607f"/>
        <path id="Vector-4" data-name="Vector" d="M0,0H21.818V21.818H0Z" transform="translate(21.818 21.818) rotate(180)" fill="none" opacity="0"/>
      </g>
    </g>
  </g>
</svg>
