<svg xmlns="http://www.w3.org/2000/svg" width="34.559" height="34.56" viewBox="0 0 34.559 34.56">
  <g id="Group_2407" data-name="Group 2407" transform="translate(0 0)">
    <g id="vuesax_bold_edit-2" data-name="vuesax/bold/edit-2" transform="translate(5.236 4.189)">
      <g id="edit-2" transform="translate(0 0)">
        <path id="Vector" d="M19.636,1.571H.785A.791.791,0,0,1,0,.785.791.791,0,0,1,.785,0H19.636a.791.791,0,0,1,.785.785A.791.791,0,0,1,19.636,1.571Z" transform="translate(2.356 21.469)" fill="#5a607f"/>
        <path id="Vector-2" data-name="Vector" d="M7.493,1.543c-2.032-2.032-4.021-2.084-6.106,0L.121,2.811a.436.436,0,0,0-.1.419A8.513,8.513,0,0,0,5.807,9.021a.526.526,0,0,0,.126.021.419.419,0,0,0,.3-.126L7.493,7.649A4.329,4.329,0,0,0,9.033,4.622,4.312,4.312,0,0,0,7.493,1.543Z" transform="translate(12.425 2.101)" fill="#5a607f"/>
        <path id="Vector-3" data-name="Vector" d="M12.689,5.739c-.3-.147-.6-.293-.88-.461-.23-.136-.45-.283-.67-.44a6.323,6.323,0,0,1-.586-.45,1.278,1.278,0,0,1-.178-.157A8.857,8.857,0,0,1,9.3,3.142a1.276,1.276,0,0,1-.157-.189,6.091,6.091,0,0,1-.44-.576,5.75,5.75,0,0,1-.408-.618c-.168-.283-.314-.566-.461-.859C7.683.586,7.568.283,7.463,0L.886,6.577a1.261,1.261,0,0,0-.293.576L.027,11.164A2.147,2.147,0,0,0,.562,13a2.085,2.085,0,0,0,1.466.566,2.29,2.29,0,0,0,.377-.031l4.021-.566A1.166,1.166,0,0,0,7,12.672L13.579,6.1C13.286,5.99,13,5.875,12.689,5.739Z" transform="translate(3.659 6.336)" fill="#5a607f"/>
        <path id="Vector-4" data-name="Vector" d="M0,0H25.134V25.134H0Z" transform="translate(25.134 25.134) rotate(180)" fill="none" opacity="0"/>
      </g>
    </g>
  </g>
</svg>
