<svg xmlns="http://www.w3.org/2000/svg" xmlns:xlink="http://www.w3.org/1999/xlink" width="1366" height="768" viewBox="0 0 1366 768">
  <defs>
    <clipPath id="clip-path">
      <rect id="Rectangle_1696" data-name="Rectangle 1696" width="1366" height="768" fill="#fff"/>
    </clipPath>
    <clipPath id="clip-path-2">
      <rect id="Rectangle_1548" data-name="Rectangle 1548" width="2213.907" height="1682" transform="translate(0 0)" fill="none" stroke="#f99600" stroke-width="0.5"/>
    </clipPath>
  </defs>
  <g id="Mask_Group_56" data-name="Mask Group 56" clip-path="url(#clip-path)">
    <g id="Group_1590" data-name="Group 1590" transform="translate(-775 -719.003)" opacity="0.5">
      <g id="Group_1589" data-name="Group 1589" transform="translate(0 0.003)" clip-path="url(#clip-path-2)">
        <path id="Path_42621" data-name="Path 42621" d="M3.536,909.316c28.243-21.939,48.433-6.255,76.676-28.195s8.052-37.624,36.295-59.563,48.433-6.255,76.676-28.194,8.052-37.624,36.295-59.563,48.434-6.255,76.677-28.195,8.052-37.624,36.295-59.563,48.433-6.255,76.675-28.194,8.052-37.623,36.294-59.563,48.434-6.255,76.676-28.195,8.052-37.624,36.3-59.563,48.434-6.255,76.676-28.194,8.052-37.624,36.3-59.564,48.434-6.255,76.677-28.195,8.052-37.624,36.3-59.564,48.434-6.255,76.677-28.195,8.052-37.624,36.3-59.564,48.433-6.255,76.676-28.194,8.052-37.624,36.3-59.564,48.433-6.255,76.676-28.195,8.054-37.625,36.3-59.566,48.435-6.256,76.679-28.2" transform="translate(-2.679 -2.873)" fill="none" stroke="#f99600" stroke-miterlimit="10" stroke-width="0.5"/>
        <path id="Path_42622" data-name="Path 42622" d="M104.7,1009.652c28.243-21.94,48.433-6.255,76.676-28.195s8.052-37.623,36.295-59.563,48.433-6.255,76.676-28.194,8.052-37.624,36.295-59.563,48.434-6.255,76.677-28.195,8.052-37.624,36.3-59.564,48.433-6.255,76.675-28.193,8.052-37.624,36.294-59.563,48.434-6.255,76.677-28.195,8.052-37.624,36.295-59.563,48.434-6.255,76.677-28.195,8.052-37.624,36.295-59.563,48.434-6.255,76.677-28.195,8.052-37.624,36.3-59.563,48.434-6.255,76.677-28.195,8.052-37.624,36.3-59.564,48.434-6.255,76.676-28.194,8.052-37.624,36.3-59.564,48.433-6.255,76.676-28.195,8.053-37.625,36.3-59.565,48.435-6.256,76.679-28.2" transform="translate(-79.315 -84.309)" fill="none" stroke="#f99600" stroke-miterlimit="10" stroke-width="0.5"/>
        <path id="Path_42623" data-name="Path 42623" d="M205.873,1109.988c28.243-21.94,48.433-6.255,76.676-28.195s8.052-37.624,36.295-59.563,48.434-6.255,76.676-28.194,8.052-37.624,36.295-59.563,48.434-6.255,76.677-28.195,8.052-37.624,36.3-59.563,48.433-6.255,76.675-28.194,8.052-37.623,36.294-59.563,48.434-6.255,76.677-28.195,8.052-37.624,36.295-59.563,48.433-6.255,76.676-28.195,8.052-37.624,36.295-59.563,48.434-6.255,76.677-28.2,8.052-37.624,36.295-59.563,48.434-6.255,76.677-28.2,8.052-37.624,36.3-59.564,48.433-6.255,76.676-28.194,8.052-37.624,36.3-59.564,48.433-6.255,76.676-28.195,8.054-37.625,36.3-59.565,48.435-6.256,76.679-28.2" transform="translate(-155.952 -165.745)" fill="none" stroke="#f99600" stroke-miterlimit="10" stroke-width="0.5"/>
        <path id="Path_42624" data-name="Path 42624" d="M307.042,1210.324c28.243-21.939,48.434-6.255,76.676-28.194s8.052-37.624,36.294-59.563,48.433-6.255,76.676-28.195,8.052-37.624,36.295-59.563,48.434-6.255,76.677-28.195,8.052-37.624,36.3-59.563,48.433-6.255,76.675-28.194,8.052-37.624,36.294-59.563,48.434-6.255,76.676-28.195,8.053-37.624,36.295-59.564,48.433-6.255,76.676-28.194,8.052-37.624,36.295-59.564,48.434-6.255,76.677-28.195,8.052-37.624,36.3-59.564,48.434-6.255,76.677-28.195,8.052-37.624,36.3-59.564,48.433-6.255,76.676-28.194,8.053-37.624,36.3-59.564,48.433-6.255,76.676-28.195,8.054-37.625,36.3-59.565,48.434-6.256,76.679-28.2" transform="translate(-232.59 -247.182)" fill="none" stroke="#f99600" stroke-miterlimit="10" stroke-width="0.5"/>
        <path id="Path_42625" data-name="Path 42625" d="M408.211,1310.661c28.243-21.939,48.433-6.255,76.676-28.194s8.052-37.624,36.295-59.563,48.433-6.255,76.676-28.194,8.052-37.624,36.294-59.563,48.434-6.255,76.676-28.194,8.052-37.624,36.3-59.564,48.433-6.255,76.675-28.193,8.052-37.623,36.294-59.563,48.434-6.255,76.677-28.195,8.052-37.624,36.295-59.563,48.434-6.255,76.677-28.194,8.052-37.624,36.295-59.564,48.434-6.255,76.676-28.195,8.053-37.624,36.3-59.564,48.434-6.255,76.677-28.195,8.052-37.624,36.3-59.564,48.433-6.255,76.676-28.194,8.052-37.624,36.3-59.564,48.434-6.255,76.676-28.194,8.054-37.625,36.3-59.566,48.435-6.256,76.679-28.2" transform="translate(-309.227 -328.619)" fill="none" stroke="#f99600" stroke-miterlimit="10" stroke-width="0.5"/>
        <path id="Path_42626" data-name="Path 42626" d="M509.38,1411c28.243-21.939,48.433-6.255,76.676-28.195s8.052-37.624,36.294-59.563,48.433-6.255,76.677-28.194,8.052-37.624,36.294-59.563,48.434-6.255,76.676-28.195,8.052-37.624,36.295-59.564,48.433-6.255,76.675-28.193,8.052-37.624,36.294-59.563,48.433-6.255,76.676-28.195,8.052-37.624,36.295-59.563,48.433-6.255,76.676-28.194,8.052-37.624,36.3-59.564,48.434-6.255,76.677-28.195,8.052-37.624,36.3-59.564,48.434-6.255,76.677-28.195,8.052-37.624,36.3-59.564,48.433-6.255,76.676-28.194,8.052-37.625,36.3-59.564,48.434-6.255,76.676-28.195,8.054-37.625,36.3-59.565,48.435-6.256,76.679-28.2" transform="translate(-385.864 -410.055)" fill="none" stroke="#f99600" stroke-miterlimit="10" stroke-width="0.5"/>
        <path id="Path_42627" data-name="Path 42627" d="M610.549,1511.333c28.243-21.94,48.433-6.255,76.676-28.195s8.052-37.624,36.294-59.563,48.433-6.255,76.676-28.194,8.052-37.624,36.294-59.563,48.434-6.255,76.677-28.195,8.052-37.624,36.295-59.563,48.433-6.255,76.675-28.194,8.052-37.623,36.294-59.562,48.434-6.256,76.677-28.195,8.052-37.624,36.294-59.563,48.434-6.255,76.677-28.195,8.052-37.624,36.295-59.563,48.434-6.255,76.677-28.195,8.052-37.624,36.3-59.563,48.434-6.255,76.677-28.195,8.052-37.624,36.3-59.564,48.433-6.255,76.676-28.194,8.052-37.624,36.3-59.564,48.433-6.255,76.676-28.194,8.054-37.625,36.3-59.565,48.434-6.256,76.678-28.2" transform="translate(-462.501 -491.491)" fill="none" stroke="#f99600" stroke-miterlimit="10" stroke-width="0.5"/>
        <path id="Path_42628" data-name="Path 42628" d="M711.717,1611.669c28.243-21.939,48.433-6.255,76.676-28.194s8.052-37.624,36.294-59.563,48.434-6.255,76.676-28.194,8.052-37.624,36.294-59.563,48.434-6.255,76.677-28.195,8.052-37.624,36.3-59.563,48.433-6.255,76.675-28.194,8.052-37.624,36.294-59.563,48.434-6.255,76.677-28.195,8.052-37.624,36.295-59.563,48.434-6.255,76.676-28.194,8.052-37.624,36.295-59.563,48.434-6.255,76.677-28.195,8.052-37.624,36.3-59.564,48.434-6.255,76.677-28.195,8.052-37.624,36.3-59.564,48.433-6.255,76.676-28.194,8.052-37.624,36.3-59.564,48.433-6.255,76.676-28.194,8.054-37.625,36.3-59.566,48.435-6.256,76.679-28.2" transform="translate(-539.138 -572.927)" fill="none" stroke="#f99600" stroke-miterlimit="10" stroke-width="0.5"/>
        <path id="Path_42629" data-name="Path 42629" d="M812.886,1712.005c28.243-21.94,48.433-6.255,76.676-28.195s8.052-37.624,36.295-59.563,48.433-6.255,76.676-28.194,8.052-37.624,36.295-59.563,48.433-6.255,76.676-28.195,8.053-37.624,36.3-59.563,48.433-6.255,76.675-28.194,8.052-37.624,36.295-59.563,48.434-6.255,76.677-28.195,8.052-37.624,36.295-59.563,48.433-6.255,76.676-28.195,8.052-37.624,36.295-59.563,48.434-6.255,76.677-28.194,8.052-37.624,36.3-59.564,48.434-6.255,76.677-28.195,8.053-37.624,36.3-59.564,48.433-6.255,76.676-28.194,8.052-37.624,36.3-59.564,48.432-6.255,76.676-28.194,8.054-37.625,36.3-59.566,48.435-6.256,76.679-28.2" transform="translate(-615.775 -654.364)" fill="none" stroke="#f99600" stroke-miterlimit="10" stroke-width="0.5"/>
        <path id="Path_42630" data-name="Path 42630" d="M914.055,1812.341c28.243-21.94,48.433-6.255,76.677-28.195s8.052-37.624,36.295-59.563,48.434-6.254,76.676-28.194,8.052-37.624,36.3-59.563,48.434-6.255,76.676-28.194,8.052-37.624,36.3-59.563,48.433-6.255,76.675-28.194,8.052-37.623,36.294-59.563,48.434-6.255,76.677-28.194,8.052-37.624,36.295-59.564,48.434-6.254,76.676-28.194,8.052-37.624,36.295-59.563,48.434-6.255,76.677-28.195,8.052-37.624,36.295-59.564,48.434-6.255,76.677-28.195,8.052-37.624,36.3-59.564,48.434-6.255,76.676-28.194,8.053-37.624,36.3-59.564,48.433-6.255,76.676-28.195,8.054-37.625,36.3-59.565,48.435-6.256,76.678-28.2" transform="translate(-692.413 -735.8)" fill="none" stroke="#f99600" stroke-miterlimit="10" stroke-width="0.5"/>
        <path id="Path_42631" data-name="Path 42631" d="M1015.224,1912.677c28.243-21.94,48.433-6.255,76.677-28.195s8.052-37.624,36.294-59.563,48.434-6.255,76.676-28.194,8.052-37.623,36.3-59.563,48.434-6.256,76.677-28.195,8.052-37.625,36.3-59.563,48.432-6.255,76.675-28.194,8.052-37.624,36.293-59.563,48.434-6.255,76.677-28.194,8.052-37.624,36.294-59.564,48.434-6.255,76.676-28.195,8.052-37.623,36.3-59.563,48.433-6.255,76.676-28.194,8.052-37.624,36.3-59.564,48.434-6.255,76.677-28.195,8.052-37.625,36.295-59.564,48.434-6.255,76.676-28.194,8.052-37.625,36.3-59.564,48.434-6.255,76.676-28.195,8.053-37.625,36.3-59.565,48.435-6.256,76.679-28.2" transform="translate(-769.05 -817.236)" fill="none" stroke="#f99600" stroke-miterlimit="10" stroke-width="0.5"/>
        <path id="Path_42632" data-name="Path 42632" d="M1116.393,2013.013c28.243-21.94,48.434-6.255,76.677-28.195s8.051-37.624,36.294-59.564,48.434-6.254,76.676-28.194,8.052-37.624,36.3-59.563,48.433-6.255,76.676-28.195,8.053-37.624,36.3-59.564,48.433-6.255,76.675-28.194,8.051-37.623,36.294-59.562,48.434-6.255,76.677-28.195,8.052-37.624,36.295-59.563,48.434-6.255,76.676-28.195,8.052-37.623,36.295-59.563,48.434-6.255,76.677-28.194,8.052-37.624,36.3-59.564,48.434-6.256,76.677-28.195,8.052-37.624,36.3-59.564,48.434-6.255,76.676-28.194,8.052-37.625,36.3-59.563,48.433-6.256,76.676-28.195,8.053-37.625,36.3-59.565,48.435-6.256,76.679-28.2" transform="translate(-845.687 -898.673)" fill="none" stroke="#f99600" stroke-miterlimit="10" stroke-width="0.5"/>
        <path id="Path_42633" data-name="Path 42633" d="M1217.562,2113.349c28.243-21.94,48.434-6.255,76.677-28.194s8.051-37.624,36.294-59.563,48.434-6.255,76.676-28.194,8.052-37.624,36.294-59.563,48.434-6.255,76.677-28.195,8.052-37.624,36.295-59.564,48.433-6.254,76.675-28.194,8.052-37.623,36.294-59.562,48.434-6.256,76.677-28.195,8.052-37.624,36.294-59.563,48.434-6.255,76.677-28.195,8.052-37.623,36.295-59.563,48.434-6.255,76.677-28.195,8.052-37.624,36.3-59.564,48.434-6.256,76.677-28.2,8.052-37.624,36.3-59.564,48.434-6.254,76.676-28.194,8.052-37.624,36.3-59.563,48.433-6.255,76.676-28.194,8.053-37.625,36.3-59.566,48.433-6.256,76.678-28.2" transform="translate(-922.324 -980.109)" fill="none" stroke="#f99600" stroke-miterlimit="10" stroke-width="0.5"/>
        <path id="Path_42634" data-name="Path 42634" d="M1318.731,2213.686c28.243-21.939,48.434-6.254,76.677-28.194s8.052-37.624,36.294-59.563,48.434-6.255,76.676-28.195,8.052-37.624,36.295-59.563,48.434-6.255,76.677-28.2,8.052-37.624,36.3-59.563,48.432-6.255,76.676-28.194,8.051-37.624,36.294-59.563,48.434-6.255,76.677-28.195,8.052-37.623,36.294-59.563,48.434-6.255,76.676-28.194,8.052-37.624,36.3-59.563,48.434-6.256,76.676-28.2,8.053-37.625,36.3-59.564,48.434-6.255,76.677-28.195,8.052-37.625,36.3-59.564,48.434-6.255,76.676-28.193,8.052-37.625,36.3-59.564,48.434-6.255,76.676-28.194,8.054-37.624,36.3-59.565,48.434-6.256,76.678-28.2" transform="translate(-998.961 -1061.546)" fill="none" stroke="#f99600" stroke-miterlimit="10" stroke-width="0.5"/>
        <path id="Path_42635" data-name="Path 42635" d="M1419.9,2314.021c28.243-21.939,48.433-6.254,76.676-28.194s8.051-37.623,36.294-59.563,48.434-6.255,76.676-28.195,8.052-37.624,36.295-59.563,48.434-6.255,76.676-28.195,8.052-37.624,36.3-59.563,48.433-6.254,76.675-28.193,8.052-37.623,36.294-59.563,48.434-6.255,76.677-28.194,8.052-37.624,36.295-59.563,48.433-6.255,76.676-28.194,8.052-37.624,36.294-59.563,48.434-6.256,76.677-28.2,8.052-37.624,36.3-59.564,48.434-6.255,76.677-28.195,8.053-37.624,36.3-59.564,48.433-6.255,76.676-28.194,8.053-37.624,36.295-59.564,48.434-6.255,76.676-28.194,8.054-37.625,36.3-59.566,48.435-6.255,76.679-28.2" transform="translate(-1075.598 -1142.982)" fill="none" stroke="#f99600" stroke-miterlimit="10" stroke-width="0.5"/>
        <path id="Path_42636" data-name="Path 42636" d="M1521.068,2414.359c28.242-21.94,48.433-6.255,76.676-28.2s8.052-37.623,36.294-59.563,48.433-6.255,76.677-28.194,8.052-37.624,36.294-59.564,48.434-6.255,76.676-28.195,8.052-37.624,36.3-59.563,48.432-6.254,76.675-28.194,8.052-37.624,36.294-59.563,48.434-6.255,76.677-28.2,8.052-37.624,36.3-59.563,48.433-6.255,76.676-28.194,8.052-37.625,36.295-59.563,48.435-6.255,76.676-28.2,8.053-37.624,36.3-59.564,48.434-6.255,76.677-28.2,8.053-37.624,36.3-59.564,48.433-6.255,76.676-28.194,8.054-37.624,36.3-59.564,48.434-6.255,76.677-28.194,8.052-37.625,36.3-59.565,48.436-6.256,76.679-28.2" transform="translate(-1152.235 -1224.418)" fill="none" stroke="#f99600" stroke-miterlimit="10" stroke-width="0.5"/>
        <path id="Path_42637" data-name="Path 42637" d="M1622.237,2514.694c28.243-21.939,48.433-6.255,76.676-28.194s8.052-37.623,36.294-59.563,48.434-6.255,76.676-28.194,8.052-37.624,36.295-59.563,48.434-6.255,76.676-28.195,8.052-37.624,36.3-59.563,48.433-6.255,76.675-28.194,8.052-37.624,36.294-59.563,48.434-6.254,76.677-28.195,8.052-37.624,36.294-59.563,48.434-6.255,76.677-28.194,8.052-37.624,36.294-59.563,48.434-6.255,76.676-28.2,8.053-37.624,36.3-59.564,48.433-6.255,76.677-28.195,8.052-37.624,36.3-59.564,48.433-6.255,76.676-28.194,8.052-37.624,36.294-59.564,48.434-6.255,76.677-28.194,8.053-37.625,36.3-59.565,48.435-6.256,76.679-28.2" transform="translate(-1228.873 -1305.854)" fill="none" stroke="#f99600" stroke-miterlimit="10" stroke-width="0.5"/>
        <path id="Path_42638" data-name="Path 42638" d="M1723.406,2615.03c28.242-21.94,48.433-6.255,76.676-28.2s8.052-37.623,36.295-59.563,48.433-6.255,76.676-28.194,8.052-37.624,36.294-59.563,48.434-6.255,76.676-28.195,8.052-37.624,36.295-59.563,48.434-6.254,76.675-28.194,8.052-37.624,36.294-59.563,48.434-6.255,76.677-28.195,8.052-37.624,36.3-59.563,48.433-6.255,76.677-28.194,8.052-37.625,36.294-59.563,48.434-6.256,76.677-28.2,8.052-37.624,36.3-59.564,48.434-6.255,76.677-28.195,8.052-37.624,36.3-59.564,48.433-6.255,76.676-28.194,8.052-37.625,36.3-59.564,48.434-6.255,76.677-28.2,8.053-37.625,36.3-59.565,48.434-6.256,76.678-28.2" transform="translate(-1305.51 -1387.291)" fill="none" stroke="#f99600" stroke-miterlimit="10" stroke-width="0.5"/>
        <path id="Path_42639" data-name="Path 42639" d="M1824.575,2715.366c28.243-21.939,48.433-6.255,76.676-28.195s8.052-37.625,36.295-59.563,48.433-6.255,76.675-28.195,8.053-37.624,36.295-59.563,48.434-6.255,76.677-28.2,8.052-37.624,36.3-59.563,48.433-6.255,76.675-28.194,8.052-37.624,36.295-59.563,48.433-6.255,76.676-28.2,8.052-37.623,36.3-59.562,48.433-6.256,76.676-28.195,8.052-37.624,36.294-59.564,48.434-6.255,76.677-28.195,8.052-37.623,36.3-59.564,48.434-6.255,76.677-28.2,8.052-37.624,36.3-59.563,48.433-6.255,76.675-28.195,8.053-37.624,36.3-59.564,48.434-6.255,76.677-28.195,8.053-37.625,36.3-59.565,48.433-6.256,76.678-28.2" transform="translate(-1382.147 -1468.727)" fill="none" stroke="#f99600" stroke-miterlimit="10" stroke-width="0.5"/>
        <path id="Path_42640" data-name="Path 42640" d="M1925.744,2815.7c28.243-21.938,48.433-6.255,76.676-28.195s8.052-37.623,36.295-59.562,48.433-6.255,76.675-28.195,8.053-37.624,36.295-59.563,48.434-6.255,76.677-28.195,8.052-37.625,36.3-59.564,48.434-6.255,76.675-28.194,8.052-37.623,36.3-59.563,48.433-6.254,76.676-28.195,8.052-37.624,36.3-59.563,48.433-6.256,76.676-28.2,8.052-37.624,36.3-59.563,48.433-6.255,76.677-28.194,8.052-37.624,36.3-59.564,48.433-6.256,76.677-28.2,8.052-37.624,36.295-59.564,48.433-6.255,76.676-28.194,8.052-37.624,36.295-59.564,48.434-6.255,76.676-28.195,8.054-37.625,36.3-59.565,48.434-6.257,76.679-28.2" transform="translate(-1458.784 -1550.164)" fill="none" stroke="#f99600" stroke-miterlimit="10" stroke-width="0.5"/>
        <path id="Path_42641" data-name="Path 42641" d="M2026.912,2916.039c28.243-21.939,48.434-6.255,76.676-28.194s8.052-37.624,36.294-59.563,48.434-6.255,76.677-28.194,8.052-37.625,36.295-59.563,48.434-6.255,76.677-28.2,8.052-37.624,36.294-59.563,48.433-6.255,76.677-28.194,8.052-37.623,36.293-59.562,48.434-6.255,76.676-28.2,8.052-37.623,36.295-59.563,48.434-6.254,76.678-28.194,8.051-37.625,36.294-59.564,48.434-6.255,76.676-28.194,8.052-37.624,36.3-59.564,48.433-6.255,76.677-28.195,8.052-37.625,36.295-59.564,48.433-6.255,76.677-28.194,8.052-37.625,36.294-59.564,48.435-6.255,76.677-28.195,8.052-37.625,36.3-59.565,48.435-6.256,76.679-28.2" transform="translate(-1535.421 -1631.6)" fill="none" stroke="#f99600" stroke-miterlimit="10" stroke-width="0.5"/>
        <path id="Path_42642" data-name="Path 42642" d="M2128.081,3016.375c28.242-21.939,48.433-6.255,76.675-28.2s8.053-37.624,36.294-59.562,48.435-6.255,76.678-28.195,8.051-37.624,36.294-59.563,48.434-6.256,76.677-28.195,8.052-37.624,36.294-59.564,48.434-6.254,76.676-28.193,8.052-37.624,36.294-59.563,48.433-6.254,76.677-28.194,8.052-37.624,36.294-59.563,48.434-6.254,76.677-28.195,8.052-37.624,36.294-59.562,48.434-6.256,76.677-28.2,8.052-37.624,36.3-59.564,48.432-6.255,76.677-28.194,8.052-37.625,36.294-59.564,48.434-6.254,76.677-28.194,8.052-37.625,36.294-59.564,48.435-6.255,76.677-28.195,8.054-37.625,36.3-59.565,48.434-6.257,76.679-28.2" transform="translate(-1612.058 -1713.036)" fill="none" stroke="#f99600" stroke-miterlimit="10" stroke-width="0.5"/>
        <path id="Path_42643" data-name="Path 42643" d="M2229.25,3116.71c28.242-21.939,48.433-6.254,76.677-28.193s8.052-37.624,36.294-59.563,48.433-6.256,76.676-28.194,8.052-37.625,36.294-59.565,48.434-6.254,76.677-28.195,8.053-37.624,36.3-59.563,48.432-6.255,76.675-28.194,8.052-37.624,36.294-59.563,48.433-6.255,76.675-28.194,8.053-37.623,36.3-59.563,48.433-6.255,76.677-28.195,8.052-37.624,36.3-59.563,48.433-6.256,76.675-28.195,8.053-37.624,36.3-59.565,48.435-6.254,76.677-28.194,8.053-37.624,36.3-59.563,48.432-6.257,76.675-28.2,8.053-37.624,36.3-59.565,48.435-6.254,76.676-28.193,8.054-37.625,36.3-59.566,48.434-6.256,76.679-28.2" transform="translate(-1688.696 -1794.473)" fill="none" stroke="#f99600" stroke-miterlimit="10" stroke-width="0.5"/>
        <path id="Path_42644" data-name="Path 42644" d="M2330.418,3217.049c28.243-21.94,48.435-6.255,76.678-28.2s8.051-37.623,36.294-59.562,48.433-6.255,76.677-28.194,8.052-37.623,36.295-59.563,48.434-6.255,76.677-28.195,8.052-37.624,36.3-59.564,48.433-6.254,76.675-28.193,8.051-37.624,36.295-59.563,48.432-6.255,76.677-28.195,8.052-37.624,36.294-59.562,48.434-6.256,76.676-28.195,8.052-37.623,36.3-59.563,48.433-6.256,76.676-28.195,8.052-37.625,36.3-59.564,48.434-6.254,76.677-28.195,8.053-37.625,36.3-59.564,48.434-6.255,76.675-28.2,8.053-37.624,36.3-59.563,48.435-6.256,76.677-28.195,8.053-37.625,36.3-59.565,48.435-6.256,76.679-28.2" transform="translate(-1765.333 -1875.91)" fill="none" stroke="#f99600" stroke-miterlimit="10" stroke-width="0.5"/>
        <path id="Path_42645" data-name="Path 42645" d="M2431.588,3317.383c28.242-21.94,48.433-6.255,76.677-28.195s8.052-37.624,36.294-59.562,48.433-6.255,76.675-28.194,8.053-37.625,36.295-59.564,48.434-6.255,76.677-28.195,8.053-37.624,36.3-59.563,48.432-6.254,76.674-28.194,8.052-37.623,36.295-59.563,48.434-6.255,76.677-28.194,8.052-37.623,36.3-59.563,48.432-6.254,76.676-28.195,8.053-37.624,36.3-59.563,48.433-6.254,76.677-28.2,8.052-37.623,36.294-59.562,48.434-6.255,76.677-28.2,8.053-37.624,36.3-59.563,48.432-6.255,76.676-28.195,8.052-37.624,36.3-59.564,48.434-6.256,76.675-28.195,8.055-37.625,36.3-59.566,48.436-6.255,76.679-28.2" transform="translate(-1841.971 -1957.346)" fill="none" stroke="#f99600" stroke-miterlimit="10" stroke-width="0.5"/>
        <path id="Path_42646" data-name="Path 42646" d="M2532.757,3417.72c28.243-21.94,48.435-6.255,76.677-28.195s8.052-37.624,36.294-59.563,48.433-6.255,76.677-28.194,8.053-37.624,36.294-59.563,48.435-6.255,76.677-28.195,8.052-37.624,36.3-59.563,48.433-6.254,76.674-28.194,8.052-37.624,36.3-59.562,48.432-6.255,76.677-28.2,8.052-37.623,36.294-59.563,48.433-6.255,76.675-28.194,8.053-37.623,36.295-59.563,48.435-6.256,76.677-28.195,8.052-37.625,36.3-59.564,48.434-6.256,76.677-28.195,8.053-37.624,36.3-59.564,48.433-6.254,76.677-28.195,8.052-37.624,36.294-59.563,48.433-6.255,76.678-28.195,8.052-37.625,36.3-59.565,48.435-6.256,76.679-28.2" transform="translate(-1918.608 -2038.783)" fill="none" stroke="#f99600" stroke-miterlimit="10" stroke-width="0.5"/>
        <path id="Path_42647" data-name="Path 42647" d="M2633.926,3518.056c28.241-21.939,48.432-6.255,76.676-28.194s8.052-37.624,36.294-59.563,48.433-6.255,76.676-28.195,8.053-37.624,36.294-59.562,48.435-6.255,76.677-28.2,8.053-37.624,36.3-59.563,48.434-6.255,76.675-28.194,8.052-37.623,36.294-59.563,48.434-6.255,76.676-28.195,8.053-37.624,36.3-59.563,48.432-6.254,76.675-28.194,8.053-37.624,36.295-59.563,48.434-6.255,76.677-28.2,8.053-37.624,36.295-59.563,48.434-6.256,76.677-28.2,8.053-37.624,36.3-59.564,48.432-6.254,76.676-28.194,8.053-37.625,36.3-59.564,48.433-6.256,76.675-28.194,8.054-37.626,36.3-59.566,48.436-6.256,76.679-28.2" transform="translate(-1995.246 -2120.219)" fill="none" stroke="#f99600" stroke-miterlimit="10" stroke-width="0.5"/>
        <path id="Path_42648" data-name="Path 42648" d="M2735.094,3618.392c28.244-21.94,48.435-6.256,76.677-28.195s8.051-37.624,36.3-59.563,48.431-6.255,76.675-28.194,8.052-37.624,36.294-59.563,48.435-6.255,76.677-28.195,8.053-37.624,36.295-59.563,48.433-6.254,76.676-28.194,8.051-37.624,36.295-59.562,48.433-6.256,76.675-28.2,8.053-37.623,36.3-59.562,48.433-6.256,76.676-28.2,8.052-37.623,36.3-59.563,48.432-6.255,76.676-28.195,8.053-37.624,36.3-59.564,48.434-6.255,76.677-28.194,8.053-37.625,36.295-59.564,48.434-6.255,76.676-28.194,8.052-37.624,36.3-59.564,48.432-6.256,76.676-28.195,8.054-37.624,36.3-59.564,48.436-6.257,76.679-28.2" transform="translate(-2071.881 -2201.655)" fill="none" stroke="#f99600" stroke-miterlimit="10" stroke-width="0.5"/>
        <path id="Path_42649" data-name="Path 42649" d="M2836.263,3718.728c28.242-21.939,48.434-6.256,76.677-28.195s8.052-37.624,36.294-59.563,48.433-6.254,76.675-28.194,8.053-37.624,36.3-59.562,48.434-6.255,76.677-28.2,8.053-37.624,36.3-59.563,48.433-6.256,76.674-28.194,8.052-37.623,36.294-59.563,48.433-6.254,76.676-28.194,8.053-37.625,36.3-59.564,48.432-6.254,76.676-28.194,8.053-37.624,36.3-59.563,48.434-6.254,76.676-28.195,8.053-37.624,36.3-59.563,48.434-6.257,76.677-28.2,8.053-37.624,36.3-59.564,48.433-6.254,76.676-28.194,8.053-37.625,36.3-59.564,48.433-6.254,76.675-28.194,8.054-37.626,36.3-59.566,48.436-6.256,76.679-28.2" transform="translate(-2148.519 -2283.091)" fill="none" stroke="#f99600" stroke-miterlimit="10" stroke-width="0.5"/>
        <path id="Path_42650" data-name="Path 42650" d="M2937.431,3819.065c28.244-21.94,48.435-6.255,76.677-28.195s8.051-37.624,36.3-59.563,48.432-6.255,76.675-28.195,8.052-37.624,36.294-59.563,48.435-6.254,76.677-28.194,8.053-37.625,36.3-59.564,48.433-6.255,76.675-28.194,8.052-37.624,36.294-59.562,48.435-6.256,76.676-28.2,8.052-37.623,36.3-59.563,48.433-6.255,76.676-28.194,8.053-37.625,36.3-59.564,48.432-6.255,76.676-28.193,8.052-37.625,36.295-59.565,48.434-6.254,76.677-28.195,8.053-37.624,36.3-59.563,48.433-6.256,76.676-28.195,8.052-37.624,36.3-59.563,48.433-6.256,76.675-28.2,8.054-37.624,36.3-59.565,48.436-6.256,76.679-28.2" transform="translate(-2225.156 -2364.529)" fill="none" stroke="#f99600" stroke-miterlimit="10" stroke-width="0.5"/>
        <path id="Path_42651" data-name="Path 42651" d="M3038.6,3919.4c28.243-21.939,48.434-6.255,76.677-28.195s8.052-37.624,36.295-59.563,48.433-6.254,76.675-28.194,8.052-37.623,36.3-59.562,48.433-6.256,76.677-28.2,8.053-37.623,36.3-59.563,48.433-6.254,76.674-28.194,8.051-37.624,36.294-59.562,48.435-6.256,76.676-28.2,8.053-37.625,36.3-59.563,48.432-6.256,76.676-28.2,8.052-37.623,36.3-59.563,48.433-6.256,76.677-28.2,8.052-37.624,36.294-59.564,48.434-6.255,76.677-28.195,8.052-37.624,36.3-59.564,48.433-6.254,76.676-28.193,8.053-37.625,36.295-59.564,48.435-6.255,76.677-28.2,8.053-37.625,36.3-59.565,48.436-6.256,76.679-28.2" transform="translate(-2301.793 -2445.965)" fill="none" stroke="#f99600" stroke-miterlimit="10" stroke-width="0.5"/>
        <path id="Path_42652" data-name="Path 42652" d="M3139.769,4019.737c28.245-21.94,48.434-6.256,76.677-28.195s8.052-37.623,36.3-59.563,48.434-6.255,76.676-28.194,8.052-37.625,36.294-59.564,48.434-6.255,76.677-28.195,8.053-37.624,36.3-59.563,48.433-6.255,76.676-28.194,8.052-37.623,36.294-59.562,48.435-6.255,76.676-28.195,8.053-37.624,36.3-59.564,48.433-6.255,76.675-28.194,8.052-37.625,36.3-59.564,48.432-6.254,76.677-28.193,8.052-37.625,36.294-59.564,48.434-6.256,76.677-28.2,8.053-37.624,36.3-59.563,48.433-6.256,76.676-28.195,8.053-37.624,36.3-59.563,48.433-6.254,76.675-28.194,8.054-37.625,36.3-59.566,48.434-6.256,76.679-28.2" transform="translate(-2378.43 -2527.401)" fill="none" stroke="#f99600" stroke-miterlimit="10" stroke-width="0.5"/>
        <path id="Path_42653" data-name="Path 42653" d="M3240.938,4120.072c28.242-21.939,48.434-6.254,76.676-28.2s8.053-37.624,36.295-59.562,48.433-6.256,76.675-28.2,8.052-37.623,36.3-59.562,48.433-6.256,76.677-28.194,8.053-37.624,36.3-59.564,48.433-6.255,76.674-28.194,8.051-37.624,36.295-59.562,48.434-6.255,76.677-28.195,8.052-37.625,36.294-59.563,48.433-6.255,76.676-28.2,8.052-37.624,36.295-59.563,48.434-6.256,76.676-28.2,8.053-37.624,36.3-59.564,48.432-6.254,76.677-28.195,8.053-37.624,36.3-59.564,48.435-6.255,76.676-28.193,8.052-37.624,36.294-59.564,48.434-6.254,76.676-28.195,8.054-37.625,36.3-59.565,48.434-6.255,76.68-28.2" transform="translate(-2455.067 -2608.836)" fill="none" stroke="#f99600" stroke-miterlimit="10" stroke-width="0.5"/>
        <path id="Path_42654" data-name="Path 42654" d="M3342.107,4220.41c28.243-21.94,48.433-6.256,76.677-28.2s8.052-37.622,36.294-59.562,48.433-6.255,76.676-28.194,8.052-37.625,36.294-59.563,48.435-6.256,76.677-28.2,8.053-37.625,36.3-59.563,48.432-6.255,76.675-28.194,8.051-37.623,36.294-59.563,48.435-6.254,76.677-28.195,8.052-37.623,36.294-59.563,48.433-6.255,76.675-28.194,8.052-37.625,36.3-59.565,48.434-6.254,76.676-28.194,8.053-37.624,36.3-59.563,48.435-6.256,76.677-28.2,8.053-37.624,36.295-59.563,48.436-6.255,76.677-28.194,8.052-37.624,36.3-59.564,48.433-6.254,76.675-28.194,8.054-37.625,36.3-59.566,48.435-6.257,76.679-28.2" transform="translate(-2531.705 -2690.272)" fill="none" stroke="#f99600" stroke-miterlimit="10" stroke-width="0.5"/>
        <path id="Path_42655" data-name="Path 42655" d="M3443.276,4320.745c28.242-21.939,48.434-6.254,76.677-28.195s8.052-37.624,36.294-59.563,48.433-6.254,76.677-28.194,8.05-37.624,36.294-59.564,48.434-6.254,76.677-28.194,8.052-37.624,36.3-59.563,48.433-6.255,76.675-28.193,8.052-37.624,36.295-59.563,48.432-6.255,76.677-28.2,8.052-37.623,36.295-59.562,48.433-6.256,76.675-28.2,8.053-37.623,36.3-59.562,48.433-6.255,76.675-28.2,8.053-37.623,36.3-59.564,48.434-6.255,76.677-28.194,8.053-37.625,36.3-59.564,48.433-6.256,76.675-28.194,8.054-37.625,36.3-59.564,48.434-6.255,76.677-28.2,8.053-37.625,36.3-59.565,48.433-6.256,76.679-28.2" transform="translate(-2608.342 -2771.71)" fill="none" stroke="#f99600" stroke-miterlimit="10" stroke-width="0.5"/>
        <path id="Path_42656" data-name="Path 42656" d="M3544.445,4421.081c28.242-21.939,48.433-6.255,76.677-28.194s8.052-37.624,36.294-59.563,48.435-6.254,76.675-28.193,8.053-37.625,36.294-59.563,48.434-6.255,76.677-28.195,8.053-37.624,36.3-59.563,48.432-6.256,76.675-28.194,8.052-37.624,36.294-59.563,48.434-6.255,76.675-28.194,8.053-37.625,36.3-59.563,48.433-6.255,76.677-28.195,8.051-37.625,36.3-59.563,48.433-6.256,76.675-28.2,8.053-37.624,36.3-59.563,48.435-6.255,76.677-28.2,8.052-37.623,36.295-59.564,48.433-6.255,76.676-28.194,8.053-37.624,36.3-59.564,48.434-6.254,76.677-28.193,8.053-37.626,36.3-59.566,48.436-6.255,76.679-28.2" transform="translate(-2684.98 -2853.147)" fill="none" stroke="#f99600" stroke-miterlimit="10" stroke-width="0.5"/>
        <path id="Path_42657" data-name="Path 42657" d="M3645.614,4521.418c28.242-21.941,48.434-6.255,76.677-28.2s8.052-37.623,36.294-59.562,48.435-6.256,76.677-28.195,8.052-37.624,36.294-59.564,48.434-6.254,76.677-28.193,8.053-37.625,36.3-59.564,48.433-6.254,76.675-28.193,8.052-37.624,36.3-59.562,48.433-6.255,76.676-28.194,8.052-37.624,36.3-59.563,48.433-6.256,76.676-28.2,8.052-37.624,36.294-59.564,48.434-6.255,76.676-28.194,8.054-37.625,36.3-59.564,48.434-6.255,76.676-28.194,8.053-37.625,36.3-59.564,48.433-6.254,76.675-28.195,8.053-37.624,36.294-59.563,48.436-6.256,76.677-28.2,8.053-37.624,36.3-59.564,48.434-6.257,76.679-28.2" transform="translate(-2761.616 -2934.583)" fill="none" stroke="#f99600" stroke-miterlimit="10" stroke-width="0.5"/>
        <path id="Path_42658" data-name="Path 42658" d="M3746.783,4621.753c28.242-21.939,48.433-6.254,76.677-28.193s8.052-37.625,36.294-59.564,48.433-6.255,76.676-28.2,8.053-37.623,36.294-59.562,48.434-6.255,76.677-28.195,8.053-37.624,36.3-59.563,48.433-6.255,76.676-28.194,8.052-37.624,36.294-59.562,48.434-6.255,76.675-28.194,8.053-37.625,36.295-59.563,48.434-6.256,76.677-28.2,8.052-37.623,36.3-59.563,48.433-6.256,76.675-28.2,8.053-37.624,36.3-59.563,48.435-6.255,76.677-28.2,8.053-37.623,36.3-59.564,48.432-6.255,76.676-28.194,8.052-37.623,36.3-59.564,48.435-6.254,76.675-28.193,8.054-37.626,36.3-59.566,48.435-6.256,76.679-28.2" transform="translate(-2838.254 -3016.019)" fill="none" stroke="#f99600" stroke-miterlimit="10" stroke-width="0.5"/>
        <path id="Path_42659" data-name="Path 42659" d="M3847.951,4722.09c28.242-21.94,48.434-6.254,76.677-28.194s8.052-37.624,36.294-59.564,48.434-6.254,76.677-28.193,8.052-37.624,36.295-59.564,48.434-6.255,76.677-28.195,8.052-37.624,36.293-59.564,48.435-6.255,76.676-28.192,8.051-37.625,36.3-59.562,48.432-6.254,76.675-28.194,8.052-37.625,36.294-59.563,48.435-6.255,76.677-28.2,8.053-37.624,36.3-59.564,48.431-6.254,76.674-28.193,8.053-37.625,36.3-59.564,48.433-6.255,76.678-28.194,8.053-37.625,36.294-59.564,48.435-6.255,76.674-28.195,8.053-37.624,36.3-59.563,48.435-6.256,76.676-28.195,8.053-37.625,36.3-59.565,48.435-6.257,76.679-28.2" transform="translate(-2914.891 -3097.456)" fill="none" stroke="#f99600" stroke-miterlimit="10" stroke-width="0.5"/>
        <path id="Path_42660" data-name="Path 42660" d="M3949.12,4822.427c28.242-21.941,48.433-6.255,76.677-28.2s8.052-37.625,36.294-59.562,48.434-6.255,76.675-28.195,8.052-37.623,36.295-59.563,48.434-6.255,76.677-28.194,8.05-37.624,36.3-59.564,48.435-6.255,76.673-28.194,8.053-37.624,36.3-59.562,48.431-6.255,76.677-28.194,8.05-37.624,36.295-59.562,48.432-6.256,76.674-28.2,8.053-37.624,36.3-59.563,48.435-6.256,76.676-28.2,8.052-37.624,36.3-59.562,48.433-6.255,76.677-28.2,8.053-37.624,36.294-59.565,48.435-6.254,76.678-28.194,8.053-37.624,36.295-59.563,48.435-6.255,76.674-28.194,8.055-37.626,36.3-59.566,48.432-6.256,76.677-28.2" transform="translate(-2991.528 -3178.892)" fill="none" stroke="#f99600" stroke-miterlimit="10" stroke-width="0.5"/>
        <path id="Path_42661" data-name="Path 42661" d="M4050.289,4922.762c28.243-21.939,48.435-6.254,76.677-28.195s8.052-37.623,36.295-59.562,48.432-6.255,76.675-28.2,8.053-37.623,36.3-59.563,48.434-6.255,76.677-28.193,8.05-37.625,36.294-59.563,48.434-6.256,76.675-28.2,8.05-37.623,36.294-59.561,48.433-6.257,76.677-28.2,8.05-37.623,36.294-59.562,48.433-6.256,76.677-28.2,8.05-37.622,36.293-59.562,48.434-6.256,76.678-28.2,8.05-37.623,36.294-59.563,48.432-6.254,76.676-28.193,8.053-37.625,36.3-59.565,48.432-6.254,76.674-28.194,8.053-37.624,36.3-59.564,48.434-6.255,76.674-28.194,8.055-37.625,36.3-59.566,48.435-6.256,76.679-28.2" transform="translate(-3068.165 -3260.327)" fill="none" stroke="#f99600" stroke-miterlimit="10" stroke-width="0.5"/>
        <path id="Path_42662" data-name="Path 42662" d="M4151.457,5023.1c28.246-21.94,48.435-6.256,76.678-28.2s8.053-37.622,36.295-59.562,48.431-6.254,76.676-28.192,8.051-37.625,36.293-59.564,48.435-6.256,76.68-28.195,8.05-37.624,36.293-59.563,48.434-6.253,76.675-28.195,8.053-37.622,36.295-59.561,48.435-6.256,76.676-28.195,8.051-37.625,36.3-59.563,48.432-6.256,76.677-28.2,8.05-37.622,36.293-59.562,48.435-6.256,76.679-28.194,8.051-37.625,36.293-59.565,48.436-6.255,76.676-28.2,8.053-37.623,36.3-59.563,48.433-6.254,76.675-28.194,8.054-37.624,36.3-59.564,48.433-6.253,76.674-28.194,8.056-37.625,36.3-59.565,48.437-6.255,76.68-28.2" transform="translate(-3144.801 -3341.765)" fill="none" stroke="#f99600" stroke-miterlimit="10" stroke-width="0.5"/>
      </g>
    </g>
  </g>
</svg>
