<svg xmlns="http://www.w3.org/2000/svg" width="311" height="262" viewBox="0 0 311 262">
  <g id="Group_1889" data-name="Group 1889" transform="translate(-528 -221)">
    <g id="Group_1834" data-name="Group 1834" transform="translate(0 -38)">
      <g id="Group_1833" data-name="Group 1833" transform="translate(16)">
        <g id="Path_42700" data-name="Path 42700" transform="translate(551 413)" fill="none">
          <path d="M0,0H226l29.333,86H-24Z" stroke="none"/>
          <path d="M 4.554824829101562 6 L -16.09634399414062 80 L 246.9473876953125 80 L 221.7070770263672 6 L 4.554824829101562 6 M -1.52587890625e-05 0 L 225.9999847412109 0 L 255.3333282470703 86 L -24.00001525878906 86 L -1.52587890625e-05 0 Z" stroke="none" fill="#a1a7c4"/>
        </g>
        <g id="Group_1832" data-name="Group 1832" transform="translate(0 14.333)">
          <g id="Rectangle_1678" data-name="Rectangle 1678" transform="translate(550 268.667)" fill="none" stroke="#a1a7c4" stroke-width="6">
            <path d="M14,0H213a14,14,0,0,1,14,14V135a1,1,0,0,1-1,1H0a0,0,0,0,1,0,0V14A14,14,0,0,1,14,0Z" stroke="none"/>
            <path d="M14,3H213a11,11,0,0,1,11,11V131a2,2,0,0,1-2,2H6a3,3,0,0,1-3-3V14A11,11,0,0,1,14,3Z" fill="none"/>
          </g>
          <rect id="Rectangle_1680" data-name="Rectangle 1680" width="157" height="154" transform="translate(590 244.667)" fill="#f4f7fc"/>
        </g>
        <g id="Path_42713" data-name="Path 42713" transform="translate(615 470)" fill="none">
          <path d="M15,0H88a15,15,0,0,1,15,15V29H0V15A15,15,0,0,1,15,0Z" stroke="none"/>
          <path d="M 15 6 C 10.03737640380859 6 6 10.03738021850586 6 15 L 6 23 L 97 23 L 97 15 C 97 10.03738021850586 92.96261596679688 6 88 6 L 15 6 M 15 0 L 88 0 C 96.28425598144531 0 103 6.715719223022461 103 15 L 103 29 L 0 29 L 0 15 C 0 6.715719223022461 6.715721130371094 0 15 0 Z" stroke="none" fill="#a1a7c4"/>
        </g>
      </g>
      <path id="Icon_metro-wifi-full" data-name="Icon metro-wifi-full" d="M52.039,93.328l10.705,10.705a38.439,38.439,0,0,1,54.433,0l10.705-10.705a53.624,53.624,0,0,0-75.844,0ZM27.65,68.931l10.72,10.72a72.861,72.861,0,0,1,103.181,0l10.72-10.72a88.12,88.12,0,0,0-124.622,0Zm62.311-60.3A122.226,122.226,0,0,0,3.253,44.549L13.981,55.277a107.321,107.321,0,0,1,151.959,0l10.728-10.728A122.226,122.226,0,0,0,89.961,8.631Zm0,100.437a11.34,11.34,0,1,0,11.34,11.34A11.344,11.344,0,0,0,89.961,109.068Z" transform="translate(590.999 262.56)" fill="none" stroke="#a1a7c4" stroke-width="6"/>
      <g id="Path_42712" data-name="Path 42712" transform="translate(732 304)" fill="#f4f7fc">
        <path d="M 14.99999904632568 64.60010528564453 L 6.999999046325684 64.60010528564453 C 4.794387817382812 64.60010528564453 2.999998807907104 63.03799438476562 2.999998807907104 61.11789321899414 L 2.999998807907104 61.06881713867188 L 2.998399019241333 61.01977157592773 L 1.099780797958374 3.000004291534424 L 20.52040863037109 3.000004291534424 L 19.00102043151855 61.03938293457031 L 18.99999809265137 61.07863616943359 L 18.99999809265137 61.11789321899414 C 18.99999809265137 63.03799438476562 17.20561027526855 64.60010528564453 14.99999904632568 64.60010528564453 Z" stroke="none"/>
        <path d="M 4.199226379394531 6.000003814697266 L 6.000002861022949 61.11789703369141 C 6.000002861022949 61.2099723815918 6.333295822143555 61.60009384155273 7.000002861022949 61.60009384155273 L 15.00000381469727 61.60009384155273 C 15.66671085357666 61.60009384155273 16.00000381469727 61.2099723815918 16.0020637512207 60.96088027954102 L 17.44085311889648 6.000003814697266 L 4.199226379394531 6.000003814697266 M -1.999996185302734 0 L 23.59997177124023 0 L 22.00000381469727 61.11789703369141 C 22.00000381469727 64.69792938232422 18.86598777770996 67.60009765625 15.00000381469727 67.60009765625 L 7.000002861022949 67.60009765625 C 3.134002685546875 67.60009765625 3.814697265625e-06 64.69792938232422 3.814697265625e-06 61.11789703369141 L -1.999996185302734 0 Z" stroke="none" fill="#a1a7c4"/>
      </g>
      <g id="Ellipse_141" data-name="Ellipse 141" transform="translate(733 375)" fill="#f4f7fc" stroke="#a1a7c4" stroke-width="5">
        <circle cx="10" cy="10" r="10" stroke="none"/>
        <circle cx="10" cy="10" r="7.5" fill="none"/>
      </g>
    </g>
    <g id="Group_1835" data-name="Group 1835" transform="translate(-4)">
      <line id="Line_45" data-name="Line 45" x2="280" transform="translate(546.5 477.5)" fill="none" stroke="#a1a7c4" stroke-width="3"/>
      <g id="Rectangle_1681" data-name="Rectangle 1681" transform="translate(825 472)" fill="#f4f7fc" stroke="#a1a7c4" stroke-width="3">
        <rect width="18" height="11" stroke="none"/>
        <rect x="1.5" y="1.5" width="15" height="8" fill="none"/>
      </g>
      <g id="Rectangle_1682" data-name="Rectangle 1682" transform="translate(532 472)" fill="#f4f7fc" stroke="#a1a7c4" stroke-width="3">
        <rect width="18" height="11" stroke="none"/>
        <rect x="1.5" y="1.5" width="15" height="8" fill="none"/>
      </g>
    </g>
  </g>
</svg>
