<?xml version="1.0" encoding="utf-8"?>
<!-- Generator: Adobe Illustrator 26.0.2, SVG Export Plug-In . SVG Version: 6.00 Build 0)  -->
<svg version="1.0" id="Layer_1" xmlns="http://www.w3.org/2000/svg" xmlns:xlink="http://www.w3.org/1999/xlink" x="0px" y="0px"
	 viewBox="0 0 66.64 67.74" style="enable-background:new 0 0 66.64 67.74;" xml:space="preserve">
<style type="text/css">
	.st0{clip-path:url(#SVGID_00000132072265909991119200000011256685174317355658_);}
	.st1{clip-path:url(#SVGID_00000098205740528557191630000005112177094454871179_);fill:#F15B2B;}
	.st2{clip-path:url(#SVGID_00000098205740528557191630000005112177094454871179_);fill:#F15C2B;}
	.st3{clip-path:url(#SVGID_00000098205740528557191630000005112177094454871179_);fill:#F15D2B;}
	.st4{clip-path:url(#SVGID_00000098205740528557191630000005112177094454871179_);fill:#F15E2B;}
	.st5{clip-path:url(#SVGID_00000098205740528557191630000005112177094454871179_);fill:#F15F2B;}
	.st6{clip-path:url(#SVGID_00000098205740528557191630000005112177094454871179_);fill:#F1602B;}
	.st7{clip-path:url(#SVGID_00000098205740528557191630000005112177094454871179_);fill:#F1612B;}
	.st8{clip-path:url(#SVGID_00000098205740528557191630000005112177094454871179_);fill:#F1612A;}
	.st9{clip-path:url(#SVGID_00000098205740528557191630000005112177094454871179_);fill:#F2612A;}
	.st10{clip-path:url(#SVGID_00000098205740528557191630000005112177094454871179_);fill:#F2622A;}
	.st11{clip-path:url(#SVGID_00000098205740528557191630000005112177094454871179_);fill:#F2632A;}
	.st12{clip-path:url(#SVGID_00000098205740528557191630000005112177094454871179_);fill:#F2642A;}
	.st13{clip-path:url(#SVGID_00000098205740528557191630000005112177094454871179_);fill:#F2652A;}
	.st14{clip-path:url(#SVGID_00000098205740528557191630000005112177094454871179_);fill:#F2662A;}
	.st15{clip-path:url(#SVGID_00000098205740528557191630000005112177094454871179_);fill:#F2672A;}
	.st16{clip-path:url(#SVGID_00000098205740528557191630000005112177094454871179_);fill:#F2682A;}
	.st17{clip-path:url(#SVGID_00000098205740528557191630000005112177094454871179_);fill:#F2692A;}
	.st18{clip-path:url(#SVGID_00000098205740528557191630000005112177094454871179_);fill:#F26A2A;}
	.st19{clip-path:url(#SVGID_00000098205740528557191630000005112177094454871179_);fill:#F26A29;}
	.st20{clip-path:url(#SVGID_00000098205740528557191630000005112177094454871179_);fill:#F26B29;}
	.st21{clip-path:url(#SVGID_00000098205740528557191630000005112177094454871179_);fill:#F36B29;}
	.st22{clip-path:url(#SVGID_00000098205740528557191630000005112177094454871179_);fill:#F36C29;}
	.st23{clip-path:url(#SVGID_00000098205740528557191630000005112177094454871179_);fill:#F36D29;}
	.st24{clip-path:url(#SVGID_00000098205740528557191630000005112177094454871179_);fill:#F36E29;}
	.st25{clip-path:url(#SVGID_00000098205740528557191630000005112177094454871179_);fill:#F36F29;}
	.st26{clip-path:url(#SVGID_00000098205740528557191630000005112177094454871179_);fill:#F37029;}
	.st27{clip-path:url(#SVGID_00000098205740528557191630000005112177094454871179_);fill:#F37129;}
	.st28{clip-path:url(#SVGID_00000098205740528557191630000005112177094454871179_);fill:#F37229;}
	.st29{clip-path:url(#SVGID_00000098205740528557191630000005112177094454871179_);fill:#F37228;}
	.st30{clip-path:url(#SVGID_00000098205740528557191630000005112177094454871179_);fill:#F37328;}
	.st31{clip-path:url(#SVGID_00000098205740528557191630000005112177094454871179_);fill:#F37428;}
	.st32{clip-path:url(#SVGID_00000098205740528557191630000005112177094454871179_);fill:#F47428;}
	.st33{clip-path:url(#SVGID_00000098205740528557191630000005112177094454871179_);fill:#F47528;}
	.st34{clip-path:url(#SVGID_00000098205740528557191630000005112177094454871179_);fill:#F47628;}
	.st35{clip-path:url(#SVGID_00000098205740528557191630000005112177094454871179_);fill:#F47728;}
	.st36{clip-path:url(#SVGID_00000098205740528557191630000005112177094454871179_);fill:#F47828;}
	.st37{clip-path:url(#SVGID_00000098205740528557191630000005112177094454871179_);fill:#F47927;}
	.st38{clip-path:url(#SVGID_00000098205740528557191630000005112177094454871179_);fill:#F47A27;}
	.st39{clip-path:url(#SVGID_00000098205740528557191630000005112177094454871179_);fill:#F47B27;}
	.st40{clip-path:url(#SVGID_00000098205740528557191630000005112177094454871179_);fill:#F47C27;}
	.st41{clip-path:url(#SVGID_00000098205740528557191630000005112177094454871179_);fill:#F47D27;}
	.st42{clip-path:url(#SVGID_00000098205740528557191630000005112177094454871179_);fill:#F47E27;}
	.st43{clip-path:url(#SVGID_00000098205740528557191630000005112177094454871179_);fill:#F57E26;}
	.st44{clip-path:url(#SVGID_00000098205740528557191630000005112177094454871179_);fill:#F57F26;}
	.st45{clip-path:url(#SVGID_00000098205740528557191630000005112177094454871179_);fill:#F58026;}
	.st46{clip-path:url(#SVGID_00000098205740528557191630000005112177094454871179_);fill:#F58126;}
	.st47{clip-path:url(#SVGID_00000098205740528557191630000005112177094454871179_);fill:#F58226;}
	.st48{clip-path:url(#SVGID_00000098205740528557191630000005112177094454871179_);fill:#F58326;}
	.st49{clip-path:url(#SVGID_00000098205740528557191630000005112177094454871179_);fill:#F58425;}
	.st50{clip-path:url(#SVGID_00000098205740528557191630000005112177094454871179_);fill:#F58525;}
	.st51{clip-path:url(#SVGID_00000098205740528557191630000005112177094454871179_);fill:#F68525;}
	.st52{clip-path:url(#SVGID_00000098205740528557191630000005112177094454871179_);fill:#F68625;}
	.st53{clip-path:url(#SVGID_00000098205740528557191630000005112177094454871179_);fill:#F68725;}
	.st54{clip-path:url(#SVGID_00000098205740528557191630000005112177094454871179_);fill:#F68825;}
	.st55{clip-path:url(#SVGID_00000098205740528557191630000005112177094454871179_);fill:#F68824;}
	.st56{clip-path:url(#SVGID_00000098205740528557191630000005112177094454871179_);fill:#F68924;}
	.st57{clip-path:url(#SVGID_00000098205740528557191630000005112177094454871179_);fill:#F68A24;}
	.st58{clip-path:url(#SVGID_00000098205740528557191630000005112177094454871179_);fill:#F68B24;}
	.st59{clip-path:url(#SVGID_00000098205740528557191630000005112177094454871179_);fill:#F68C24;}
	.st60{clip-path:url(#SVGID_00000098205740528557191630000005112177094454871179_);fill:#F68D23;}
	.st61{clip-path:url(#SVGID_00000098205740528557191630000005112177094454871179_);fill:#F78D23;}
	.st62{clip-path:url(#SVGID_00000098205740528557191630000005112177094454871179_);fill:#F78E23;}
	.st63{clip-path:url(#SVGID_00000098205740528557191630000005112177094454871179_);fill:#F78F23;}
	.st64{clip-path:url(#SVGID_00000098205740528557191630000005112177094454871179_);fill:#F79023;}
	.st65{clip-path:url(#SVGID_00000098205740528557191630000005112177094454871179_);fill:#F79122;}
	.st66{clip-path:url(#SVGID_00000098205740528557191630000005112177094454871179_);fill:#F79222;}
	.st67{clip-path:url(#SVGID_00000098205740528557191630000005112177094454871179_);fill:#F79322;}
	.st68{clip-path:url(#SVGID_00000098205740528557191630000005112177094454871179_);fill:#F79422;}
	.st69{clip-path:url(#SVGID_00000098205740528557191630000005112177094454871179_);fill:#F79521;}
	.st70{clip-path:url(#SVGID_00000098205740528557191630000005112177094454871179_);fill:#F89621;}
	.st71{clip-path:url(#SVGID_00000098205740528557191630000005112177094454871179_);fill:#F89622;}
	.st72{clip-path:url(#SVGID_00000098205740528557191630000005112177094454871179_);fill:#F89723;}
	.st73{fill:#FFFFFF;}
</style>
<g>
	<g>
		<defs>
			<path id="SVGID_1_" d="M22.54,53.88c-1.31-0.98-2.48-2.14-3.48-3.45c-2.25-2.95-3.59-6.64-3.59-10.64
				c0-9.71,7.87-17.58,17.58-17.58c6.94,0,12.95,4.02,15.8,9.87c1.14,2.33,1.78,4.95,1.78,7.71c0,5.77-2.78,10.9-7.08,14.1
				c0.3-0.56,0.58-1.15,0.82-1.79c0.98-2.49,0.8-4.97-0.54-7.38c-1.16-2.09-2.97-3.17-4.74-4.02c-1.2-0.58-2.6-1.3-3.94-2.23
				c-0.64-0.45-1.23-1.15-1.88-2.21c-0.59-0.96-0.52-2.13,0.18-3.12c0.62-0.88,1.54-1.19,2.59-0.86c0.44,0.14,0.85,0.35,1.19,0.54
				c0.74,0.4,1.48,0.82,2.21,1.22c0.83,0.46,1.68,0.94,2.53,1.4c0.14,0.08,0.28,0.17,0.4,0.23c1.03,0.57-0.8-1.83-0.8-1.83
				l-0.34-0.15L40,33.13c0.01-0.03,0.03-0.06,0.05-0.1l1.58,0.19l-0.09-0.14c0.01,0,0.01,0,0.02,0.01
				c-0.09-0.23-0.21-0.49-0.36-0.76c-0.39-0.69-0.77-1.17-0.91-1.27c-1.97-1.46-4.1-1.91-6.33-1.36c-1.45,0.36-2.53,1.29-3.06,2.62
				c-0.61,1.53-0.35,3.4,0.68,4.98c1.46,2.25,3.58,3.4,5.46,4.23l0.2,0.09c1.06,0.47,2.16,0.95,3.13,1.68
				c1.23,0.91,1.99,2.13,2.22,3.54c0.01,0.07,0.02,0.14,0.03,0.22c-0.13-0.23-0.29-0.44-0.47-0.63v0c-0.01-0.04-0.04-0.08-0.08-0.12
				c-0.11-0.09-0.19-0.14-0.25-0.18c-0.84-0.68-1.85-0.95-1.89-0.97c-2.44-0.92-6.01-1.54-6.01-1.54c-3.98-0.67-7.95-2.7-10.7-4.39
				c-0.11-0.06-0.24-0.03-0.31,0.07c-0.84,1.33-1.42,2.85-1.63,4.49c-0.02,0.14,0.1,0.27,0.24,0.27c0.27,0,0.31,0.39,0.05,0.45
				l-0.2,0.05c-0.1,0.02-0.17,0.11-0.17,0.21c-0.01,0.17-0.01,0.34-0.01,0.52c0,0.52,0.04,1.04,0.1,1.54
				c0.02,0.12,0.13,0.21,0.25,0.19l0.7-0.07c0.28-0.03,0.35,0.39,0.07,0.45l-0.5,0.11c-0.14,0.03-0.22,0.18-0.16,0.31
				c0.34,0.77,0.71,1.52,1.02,2.1c0.04,0.08,0.13,0.12,0.22,0.12l3.23-0.29c0.28-0.02,0.34,0.38,0.07,0.45l-2.63,0.59
				c-0.16,0.04-0.23,0.22-0.13,0.35c0.72,0.99,2.5,2.47,3.33,2.93c2.17,1.65,7.43,2.21,8.97-0.22c1.53-2.43-4.1-5.47-4.1-5.47
				l-0.01,0c-0.06-0.06-0.12-0.11-0.17-0.17c-0.23-0.26-0.31-0.49,0.07-0.55c0,0,0,0,0,0l0,0.01c0,0,4.98,0.13,7.17,3.29
				c0,0,0,0.01,0,0.01c0,0,0,0,0,0c0.01,0.01,0.01,0.01,0.02,0.02c0.17,0.26,1.4,2.27-0.81,4.07c-0.18,0.11-0.37,0.22-0.55,0.32
				c-0.3,0.17-0.61,0.32-0.94,0.45c-0.6,0.25-1.22,0.46-1.85,0.62c-0.85,0.18-1.68,0.26-2.45,0.27
				C27.67,56.52,24.59,55.24,22.54,53.88 M6.5,32.33c0,14.68,11.9,26.58,26.58,26.58c14.68,0,26.58-11.9,26.58-26.58
				c0-14.68-11.9-26.58-26.58-26.58C18.4,5.75,6.5,17.65,6.5,32.33"/>
		</defs>
		<clipPath id="SVGID_00000026131524668571189250000014362649518737699247_">
			<use xlink:href="#SVGID_1_"  style="overflow:visible;"/>
		</clipPath>
		<g style="clip-path:url(#SVGID_00000026131524668571189250000014362649518737699247_);">
			<g>
				<defs>
					<rect id="SVGID_00000179647815144315343150000000131597471100803736_" x="6.5" y="5.75" width="53.16" height="53.15"/>
				</defs>
				<clipPath id="SVGID_00000079453200601362832430000000144299618685916844_">
					<use xlink:href="#SVGID_00000179647815144315343150000000131597471100803736_"  style="overflow:visible;"/>
				</clipPath>
				<path style="clip-path:url(#SVGID_00000079453200601362832430000000144299618685916844_);fill:#F15B2B;" d="M6.5,5.75v53.15
					V5.75z"/>
				
					<rect x="6.5" y="5.75" style="clip-path:url(#SVGID_00000079453200601362832430000000144299618685916844_);fill:#F15B2B;" width="0.21" height="53.15"/>
				
					<rect x="6.71" y="5.75" style="clip-path:url(#SVGID_00000079453200601362832430000000144299618685916844_);fill:#F15B2B;" width="0.21" height="53.15"/>
				
					<rect x="6.92" y="5.75" style="clip-path:url(#SVGID_00000079453200601362832430000000144299618685916844_);fill:#F15B2B;" width="0.21" height="53.15"/>
				
					<rect x="7.14" y="5.75" style="clip-path:url(#SVGID_00000079453200601362832430000000144299618685916844_);fill:#F15B2B;" width="0.21" height="53.15"/>
				
					<rect x="7.35" y="5.75" style="clip-path:url(#SVGID_00000079453200601362832430000000144299618685916844_);fill:#F15B2B;" width="0.21" height="53.15"/>
				
					<rect x="7.56" y="5.75" style="clip-path:url(#SVGID_00000079453200601362832430000000144299618685916844_);fill:#F15B2B;" width="0.21" height="53.15"/>
				
					<rect x="7.77" y="5.75" style="clip-path:url(#SVGID_00000079453200601362832430000000144299618685916844_);fill:#F15B2B;" width="0.21" height="53.15"/>
				
					<rect x="7.99" y="5.75" style="clip-path:url(#SVGID_00000079453200601362832430000000144299618685916844_);fill:#F15B2B;" width="0.21" height="53.15"/>
				
					<rect x="8.2" y="5.75" style="clip-path:url(#SVGID_00000079453200601362832430000000144299618685916844_);fill:#F15B2B;" width="0.21" height="53.15"/>
				
					<rect x="8.41" y="5.75" style="clip-path:url(#SVGID_00000079453200601362832430000000144299618685916844_);fill:#F15C2B;" width="0.21" height="53.15"/>
				
					<rect x="8.62" y="5.75" style="clip-path:url(#SVGID_00000079453200601362832430000000144299618685916844_);fill:#F15C2B;" width="0.21" height="53.15"/>
				
					<rect x="8.84" y="5.75" style="clip-path:url(#SVGID_00000079453200601362832430000000144299618685916844_);fill:#F15C2B;" width="0.21" height="53.15"/>
				
					<rect x="9.05" y="5.75" style="clip-path:url(#SVGID_00000079453200601362832430000000144299618685916844_);fill:#F15C2B;" width="0.21" height="53.15"/>
				
					<rect x="9.26" y="5.75" style="clip-path:url(#SVGID_00000079453200601362832430000000144299618685916844_);fill:#F15C2B;" width="0.21" height="53.15"/>
				
					<rect x="9.48" y="5.75" style="clip-path:url(#SVGID_00000079453200601362832430000000144299618685916844_);fill:#F15C2B;" width="0.21" height="53.15"/>
				
					<rect x="9.69" y="5.75" style="clip-path:url(#SVGID_00000079453200601362832430000000144299618685916844_);fill:#F15C2B;" width="0.21" height="53.15"/>
				
					<rect x="9.9" y="5.75" style="clip-path:url(#SVGID_00000079453200601362832430000000144299618685916844_);fill:#F15C2B;" width="0.21" height="53.15"/>
				
					<rect x="10.11" y="5.75" style="clip-path:url(#SVGID_00000079453200601362832430000000144299618685916844_);fill:#F15C2B;" width="0.21" height="53.15"/>
				
					<rect x="10.33" y="5.75" style="clip-path:url(#SVGID_00000079453200601362832430000000144299618685916844_);fill:#F15C2B;" width="0.21" height="53.15"/>
				
					<rect x="10.54" y="5.75" style="clip-path:url(#SVGID_00000079453200601362832430000000144299618685916844_);fill:#F15D2B;" width="0.21" height="53.15"/>
				
					<rect x="10.75" y="5.75" style="clip-path:url(#SVGID_00000079453200601362832430000000144299618685916844_);fill:#F15D2B;" width="0.21" height="53.15"/>
				
					<rect x="10.96" y="5.75" style="clip-path:url(#SVGID_00000079453200601362832430000000144299618685916844_);fill:#F15D2B;" width="0.21" height="53.15"/>
				
					<rect x="11.18" y="5.75" style="clip-path:url(#SVGID_00000079453200601362832430000000144299618685916844_);fill:#F15D2B;" width="0.21" height="53.15"/>
				
					<rect x="11.39" y="5.75" style="clip-path:url(#SVGID_00000079453200601362832430000000144299618685916844_);fill:#F15D2B;" width="0.21" height="53.15"/>
				
					<rect x="11.6" y="5.75" style="clip-path:url(#SVGID_00000079453200601362832430000000144299618685916844_);fill:#F15D2B;" width="0.21" height="53.15"/>
				
					<rect x="11.81" y="5.75" style="clip-path:url(#SVGID_00000079453200601362832430000000144299618685916844_);fill:#F15D2B;" width="0.21" height="53.15"/>
				
					<rect x="12.03" y="5.75" style="clip-path:url(#SVGID_00000079453200601362832430000000144299618685916844_);fill:#F15E2B;" width="0.21" height="53.15"/>
				
					<rect x="12.24" y="5.75" style="clip-path:url(#SVGID_00000079453200601362832430000000144299618685916844_);fill:#F15E2B;" width="0.21" height="53.15"/>
				
					<rect x="12.45" y="5.75" style="clip-path:url(#SVGID_00000079453200601362832430000000144299618685916844_);fill:#F15E2B;" width="0.21" height="53.15"/>
				
					<rect x="12.66" y="5.75" style="clip-path:url(#SVGID_00000079453200601362832430000000144299618685916844_);fill:#F15E2B;" width="0.21" height="53.15"/>
				
					<rect x="12.88" y="5.75" style="clip-path:url(#SVGID_00000079453200601362832430000000144299618685916844_);fill:#F15E2B;" width="0.21" height="53.15"/>
				
					<rect x="13.09" y="5.75" style="clip-path:url(#SVGID_00000079453200601362832430000000144299618685916844_);fill:#F15F2B;" width="0.21" height="53.15"/>
				
					<rect x="13.3" y="5.75" style="clip-path:url(#SVGID_00000079453200601362832430000000144299618685916844_);fill:#F15F2B;" width="0.21" height="53.15"/>
				
					<rect x="13.51" y="5.75" style="clip-path:url(#SVGID_00000079453200601362832430000000144299618685916844_);fill:#F15F2B;" width="0.21" height="53.15"/>
				
					<rect x="13.73" y="5.75" style="clip-path:url(#SVGID_00000079453200601362832430000000144299618685916844_);fill:#F15F2B;" width="0.21" height="53.15"/>
				
					<rect x="13.94" y="5.75" style="clip-path:url(#SVGID_00000079453200601362832430000000144299618685916844_);fill:#F15F2B;" width="0.21" height="53.15"/>
				
					<rect x="14.15" y="5.75" style="clip-path:url(#SVGID_00000079453200601362832430000000144299618685916844_);fill:#F1602B;" width="0.21" height="53.15"/>
				
					<rect x="14.36" y="5.75" style="clip-path:url(#SVGID_00000079453200601362832430000000144299618685916844_);fill:#F1602B;" width="0.21" height="53.15"/>
				
					<rect x="14.58" y="5.75" style="clip-path:url(#SVGID_00000079453200601362832430000000144299618685916844_);fill:#F1602B;" width="0.21" height="53.15"/>
				
					<rect x="14.79" y="5.75" style="clip-path:url(#SVGID_00000079453200601362832430000000144299618685916844_);fill:#F1602B;" width="0.21" height="53.15"/>
				
					<rect x="15" y="5.75" style="clip-path:url(#SVGID_00000079453200601362832430000000144299618685916844_);fill:#F1612B;" width="0.21" height="53.15"/>
				
					<rect x="15.21" y="5.75" style="clip-path:url(#SVGID_00000079453200601362832430000000144299618685916844_);fill:#F1612A;" width="0.21" height="53.15"/>
				
					<rect x="15.43" y="5.75" style="clip-path:url(#SVGID_00000079453200601362832430000000144299618685916844_);fill:#F2612A;" width="0.21" height="53.15"/>
				
					<rect x="15.64" y="5.75" style="clip-path:url(#SVGID_00000079453200601362832430000000144299618685916844_);fill:#F2612A;" width="0.21" height="53.15"/>
				
					<rect x="15.85" y="5.75" style="clip-path:url(#SVGID_00000079453200601362832430000000144299618685916844_);fill:#F2622A;" width="0.21" height="53.15"/>
				
					<rect x="16.06" y="5.75" style="clip-path:url(#SVGID_00000079453200601362832430000000144299618685916844_);fill:#F2622A;" width="0.21" height="53.15"/>
				
					<rect x="16.28" y="5.75" style="clip-path:url(#SVGID_00000079453200601362832430000000144299618685916844_);fill:#F2622A;" width="0.21" height="53.15"/>
				
					<rect x="16.49" y="5.75" style="clip-path:url(#SVGID_00000079453200601362832430000000144299618685916844_);fill:#F2622A;" width="0.21" height="53.15"/>
				
					<rect x="16.7" y="5.75" style="clip-path:url(#SVGID_00000079453200601362832430000000144299618685916844_);fill:#F2632A;" width="0.21" height="53.15"/>
				
					<rect x="16.92" y="5.75" style="clip-path:url(#SVGID_00000079453200601362832430000000144299618685916844_);fill:#F2632A;" width="0.21" height="53.15"/>
				
					<rect x="17.13" y="5.75" style="clip-path:url(#SVGID_00000079453200601362832430000000144299618685916844_);fill:#F2632A;" width="0.21" height="53.15"/>
				
					<rect x="17.34" y="5.75" style="clip-path:url(#SVGID_00000079453200601362832430000000144299618685916844_);fill:#F2642A;" width="0.21" height="53.15"/>
				
					<rect x="17.55" y="5.75" style="clip-path:url(#SVGID_00000079453200601362832430000000144299618685916844_);fill:#F2642A;" width="0.21" height="53.15"/>
				
					<rect x="17.77" y="5.75" style="clip-path:url(#SVGID_00000079453200601362832430000000144299618685916844_);fill:#F2642A;" width="0.21" height="53.15"/>
				
					<rect x="17.98" y="5.75" style="clip-path:url(#SVGID_00000079453200601362832430000000144299618685916844_);fill:#F2652A;" width="0.21" height="53.15"/>
				
					<rect x="18.19" y="5.75" style="clip-path:url(#SVGID_00000079453200601362832430000000144299618685916844_);fill:#F2652A;" width="0.21" height="53.15"/>
				
					<rect x="18.4" y="5.75" style="clip-path:url(#SVGID_00000079453200601362832430000000144299618685916844_);fill:#F2652A;" width="0.21" height="53.15"/>
				
					<rect x="18.62" y="5.75" style="clip-path:url(#SVGID_00000079453200601362832430000000144299618685916844_);fill:#F2662A;" width="0.21" height="53.15"/>
				
					<rect x="18.83" y="5.75" style="clip-path:url(#SVGID_00000079453200601362832430000000144299618685916844_);fill:#F2662A;" width="0.21" height="53.15"/>
				
					<rect x="19.04" y="5.75" style="clip-path:url(#SVGID_00000079453200601362832430000000144299618685916844_);fill:#F2662A;" width="0.21" height="53.15"/>
				
					<rect x="19.25" y="5.75" style="clip-path:url(#SVGID_00000079453200601362832430000000144299618685916844_);fill:#F2672A;" width="0.21" height="53.15"/>
				
					<rect x="19.47" y="5.75" style="clip-path:url(#SVGID_00000079453200601362832430000000144299618685916844_);fill:#F2672A;" width="0.21" height="53.15"/>
				
					<rect x="19.68" y="5.75" style="clip-path:url(#SVGID_00000079453200601362832430000000144299618685916844_);fill:#F2672A;" width="0.21" height="53.15"/>
				
					<rect x="19.89" y="5.75" style="clip-path:url(#SVGID_00000079453200601362832430000000144299618685916844_);fill:#F2682A;" width="0.21" height="53.15"/>
				
					<rect x="20.1" y="5.75" style="clip-path:url(#SVGID_00000079453200601362832430000000144299618685916844_);fill:#F2682A;" width="0.21" height="53.15"/>
				
					<rect x="20.32" y="5.75" style="clip-path:url(#SVGID_00000079453200601362832430000000144299618685916844_);fill:#F2682A;" width="0.21" height="53.15"/>
				
					<rect x="20.53" y="5.75" style="clip-path:url(#SVGID_00000079453200601362832430000000144299618685916844_);fill:#F2692A;" width="0.21" height="53.15"/>
				
					<rect x="20.74" y="5.75" style="clip-path:url(#SVGID_00000079453200601362832430000000144299618685916844_);fill:#F2692A;" width="0.21" height="53.15"/>
				
					<rect x="20.95" y="5.75" style="clip-path:url(#SVGID_00000079453200601362832430000000144299618685916844_);fill:#F26A2A;" width="0.21" height="53.15"/>
				
					<rect x="21.17" y="5.75" style="clip-path:url(#SVGID_00000079453200601362832430000000144299618685916844_);fill:#F26A2A;" width="0.21" height="53.15"/>
				
					<rect x="21.38" y="5.75" style="clip-path:url(#SVGID_00000079453200601362832430000000144299618685916844_);fill:#F26A29;" width="0.21" height="53.15"/>
				
					<rect x="21.59" y="5.75" style="clip-path:url(#SVGID_00000079453200601362832430000000144299618685916844_);fill:#F26B29;" width="0.21" height="53.15"/>
				
					<rect x="21.8" y="5.75" style="clip-path:url(#SVGID_00000079453200601362832430000000144299618685916844_);fill:#F36B29;" width="0.21" height="53.15"/>
				
					<rect x="22.02" y="5.75" style="clip-path:url(#SVGID_00000079453200601362832430000000144299618685916844_);fill:#F36C29;" width="0.21" height="53.15"/>
				
					<rect x="22.23" y="5.75" style="clip-path:url(#SVGID_00000079453200601362832430000000144299618685916844_);fill:#F36C29;" width="0.21" height="53.15"/>
				
					<rect x="22.44" y="5.75" style="clip-path:url(#SVGID_00000079453200601362832430000000144299618685916844_);fill:#F36C29;" width="0.21" height="53.15"/>
				
					<rect x="22.65" y="5.75" style="clip-path:url(#SVGID_00000079453200601362832430000000144299618685916844_);fill:#F36D29;" width="0.21" height="53.15"/>
				
					<rect x="22.87" y="5.75" style="clip-path:url(#SVGID_00000079453200601362832430000000144299618685916844_);fill:#F36D29;" width="0.21" height="53.15"/>
				
					<rect x="23.08" y="5.75" style="clip-path:url(#SVGID_00000079453200601362832430000000144299618685916844_);fill:#F36E29;" width="0.21" height="53.15"/>
				
					<rect x="23.29" y="5.75" style="clip-path:url(#SVGID_00000079453200601362832430000000144299618685916844_);fill:#F36E29;" width="0.21" height="53.15"/>
				
					<rect x="23.5" y="5.75" style="clip-path:url(#SVGID_00000079453200601362832430000000144299618685916844_);fill:#F36E29;" width="0.21" height="53.15"/>
				
					<rect x="23.72" y="5.75" style="clip-path:url(#SVGID_00000079453200601362832430000000144299618685916844_);fill:#F36F29;" width="0.21" height="53.15"/>
				
					<rect x="23.93" y="5.75" style="clip-path:url(#SVGID_00000079453200601362832430000000144299618685916844_);fill:#F36F29;" width="0.21" height="53.15"/>
				
					<rect x="24.14" y="5.75" style="clip-path:url(#SVGID_00000079453200601362832430000000144299618685916844_);fill:#F37029;" width="0.21" height="53.15"/>
				
					<rect x="24.36" y="5.75" style="clip-path:url(#SVGID_00000079453200601362832430000000144299618685916844_);fill:#F37029;" width="0.21" height="53.15"/>
				
					<rect x="24.57" y="5.75" style="clip-path:url(#SVGID_00000079453200601362832430000000144299618685916844_);fill:#F37129;" width="0.21" height="53.15"/>
				
					<rect x="24.78" y="5.75" style="clip-path:url(#SVGID_00000079453200601362832430000000144299618685916844_);fill:#F37129;" width="0.21" height="53.15"/>
				
					<rect x="24.99" y="5.75" style="clip-path:url(#SVGID_00000079453200601362832430000000144299618685916844_);fill:#F37229;" width="0.21" height="53.15"/>
				
					<rect x="25.21" y="5.75" style="clip-path:url(#SVGID_00000079453200601362832430000000144299618685916844_);fill:#F37229;" width="0.21" height="53.15"/>
				
					<rect x="25.42" y="5.75" style="clip-path:url(#SVGID_00000079453200601362832430000000144299618685916844_);fill:#F37228;" width="0.21" height="53.15"/>
				
					<rect x="25.63" y="5.75" style="clip-path:url(#SVGID_00000079453200601362832430000000144299618685916844_);fill:#F37328;" width="0.21" height="53.15"/>
				
					<rect x="25.84" y="5.75" style="clip-path:url(#SVGID_00000079453200601362832430000000144299618685916844_);fill:#F37328;" width="0.21" height="53.15"/>
				
					<rect x="26.06" y="5.75" style="clip-path:url(#SVGID_00000079453200601362832430000000144299618685916844_);fill:#F37428;" width="0.21" height="53.15"/>
				
					<rect x="26.27" y="5.75" style="clip-path:url(#SVGID_00000079453200601362832430000000144299618685916844_);fill:#F47428;" width="0.21" height="53.15"/>
				
					<rect x="26.48" y="5.75" style="clip-path:url(#SVGID_00000079453200601362832430000000144299618685916844_);fill:#F47528;" width="0.21" height="53.15"/>
				
					<rect x="26.69" y="5.75" style="clip-path:url(#SVGID_00000079453200601362832430000000144299618685916844_);fill:#F47528;" width="0.21" height="53.15"/>
				
					<rect x="26.91" y="5.75" style="clip-path:url(#SVGID_00000079453200601362832430000000144299618685916844_);fill:#F47628;" width="0.21" height="53.15"/>
				
					<rect x="27.12" y="5.75" style="clip-path:url(#SVGID_00000079453200601362832430000000144299618685916844_);fill:#F47628;" width="0.21" height="53.15"/>
				
					<rect x="27.33" y="5.75" style="clip-path:url(#SVGID_00000079453200601362832430000000144299618685916844_);fill:#F47728;" width="0.21" height="53.15"/>
				
					<rect x="27.54" y="5.75" style="clip-path:url(#SVGID_00000079453200601362832430000000144299618685916844_);fill:#F47728;" width="0.21" height="53.15"/>
				
					<rect x="27.76" y="5.75" style="clip-path:url(#SVGID_00000079453200601362832430000000144299618685916844_);fill:#F47828;" width="0.21" height="53.15"/>
				
					<rect x="27.97" y="5.75" style="clip-path:url(#SVGID_00000079453200601362832430000000144299618685916844_);fill:#F47828;" width="0.21" height="53.15"/>
				
					<rect x="28.18" y="5.75" style="clip-path:url(#SVGID_00000079453200601362832430000000144299618685916844_);fill:#F47927;" width="0.21" height="53.15"/>
				
					<rect x="28.39" y="5.75" style="clip-path:url(#SVGID_00000079453200601362832430000000144299618685916844_);fill:#F47927;" width="0.21" height="53.15"/>
				
					<rect x="28.61" y="5.75" style="clip-path:url(#SVGID_00000079453200601362832430000000144299618685916844_);fill:#F47A27;" width="0.21" height="53.15"/>
				
					<rect x="28.82" y="5.75" style="clip-path:url(#SVGID_00000079453200601362832430000000144299618685916844_);fill:#F47A27;" width="0.21" height="53.15"/>
				
					<rect x="29.03" y="5.75" style="clip-path:url(#SVGID_00000079453200601362832430000000144299618685916844_);fill:#F47B27;" width="0.21" height="53.15"/>
				
					<rect x="29.24" y="5.75" style="clip-path:url(#SVGID_00000079453200601362832430000000144299618685916844_);fill:#F47B27;" width="0.21" height="53.15"/>
				
					<rect x="29.46" y="5.75" style="clip-path:url(#SVGID_00000079453200601362832430000000144299618685916844_);fill:#F47C27;" width="0.21" height="53.15"/>
				
					<rect x="29.67" y="5.75" style="clip-path:url(#SVGID_00000079453200601362832430000000144299618685916844_);fill:#F47C27;" width="0.21" height="53.15"/>
				
					<rect x="29.88" y="5.75" style="clip-path:url(#SVGID_00000079453200601362832430000000144299618685916844_);fill:#F47D27;" width="0.21" height="53.15"/>
				
					<rect x="30.09" y="5.75" style="clip-path:url(#SVGID_00000079453200601362832430000000144299618685916844_);fill:#F47D27;" width="0.21" height="53.15"/>
				
					<rect x="30.31" y="5.75" style="clip-path:url(#SVGID_00000079453200601362832430000000144299618685916844_);fill:#F47E27;" width="0.21" height="53.15"/>
				
					<rect x="30.52" y="5.75" style="clip-path:url(#SVGID_00000079453200601362832430000000144299618685916844_);fill:#F57E26;" width="0.21" height="53.15"/>
				
					<rect x="30.73" y="5.75" style="clip-path:url(#SVGID_00000079453200601362832430000000144299618685916844_);fill:#F57F26;" width="0.21" height="53.15"/>
				
					<rect x="30.94" y="5.75" style="clip-path:url(#SVGID_00000079453200601362832430000000144299618685916844_);fill:#F57F26;" width="0.21" height="53.15"/>
				
					<rect x="31.16" y="5.75" style="clip-path:url(#SVGID_00000079453200601362832430000000144299618685916844_);fill:#F58026;" width="0.21" height="53.15"/>
				
					<rect x="31.37" y="5.75" style="clip-path:url(#SVGID_00000079453200601362832430000000144299618685916844_);fill:#F58026;" width="0.21" height="53.15"/>
				
					<rect x="31.58" y="5.75" style="clip-path:url(#SVGID_00000079453200601362832430000000144299618685916844_);fill:#F58126;" width="0.21" height="53.15"/>
				
					<rect x="31.8" y="5.75" style="clip-path:url(#SVGID_00000079453200601362832430000000144299618685916844_);fill:#F58126;" width="0.21" height="53.15"/>
				
					<rect x="32.01" y="5.75" style="clip-path:url(#SVGID_00000079453200601362832430000000144299618685916844_);fill:#F58226;" width="0.21" height="53.15"/>
				
					<rect x="32.22" y="5.75" style="clip-path:url(#SVGID_00000079453200601362832430000000144299618685916844_);fill:#F58326;" width="0.21" height="53.15"/>
				
					<rect x="32.43" y="5.75" style="clip-path:url(#SVGID_00000079453200601362832430000000144299618685916844_);fill:#F58326;" width="0.21" height="53.15"/>
				
					<rect x="32.65" y="5.75" style="clip-path:url(#SVGID_00000079453200601362832430000000144299618685916844_);fill:#F58425;" width="0.21" height="53.15"/>
				
					<rect x="32.86" y="5.75" style="clip-path:url(#SVGID_00000079453200601362832430000000144299618685916844_);fill:#F58425;" width="0.21" height="53.15"/>
				
					<rect x="33.07" y="5.75" style="clip-path:url(#SVGID_00000079453200601362832430000000144299618685916844_);fill:#F58525;" width="0.21" height="53.15"/>
				
					<rect x="33.28" y="5.75" style="clip-path:url(#SVGID_00000079453200601362832430000000144299618685916844_);fill:#F68525;" width="0.21" height="53.15"/>
				
					<rect x="33.5" y="5.75" style="clip-path:url(#SVGID_00000079453200601362832430000000144299618685916844_);fill:#F68625;" width="0.21" height="53.15"/>
				
					<rect x="33.71" y="5.75" style="clip-path:url(#SVGID_00000079453200601362832430000000144299618685916844_);fill:#F68725;" width="0.21" height="53.15"/>
				
					<rect x="33.92" y="5.75" style="clip-path:url(#SVGID_00000079453200601362832430000000144299618685916844_);fill:#F68725;" width="0.21" height="53.15"/>
				
					<rect x="34.13" y="5.75" style="clip-path:url(#SVGID_00000079453200601362832430000000144299618685916844_);fill:#F68825;" width="0.21" height="53.15"/>
				
					<rect x="34.35" y="5.75" style="clip-path:url(#SVGID_00000079453200601362832430000000144299618685916844_);fill:#F68824;" width="0.21" height="53.15"/>
				
					<rect x="34.56" y="5.75" style="clip-path:url(#SVGID_00000079453200601362832430000000144299618685916844_);fill:#F68924;" width="0.21" height="53.15"/>
				
					<rect x="34.77" y="5.75" style="clip-path:url(#SVGID_00000079453200601362832430000000144299618685916844_);fill:#F68A24;" width="0.21" height="53.15"/>
				
					<rect x="34.98" y="5.75" style="clip-path:url(#SVGID_00000079453200601362832430000000144299618685916844_);fill:#F68A24;" width="0.21" height="53.15"/>
				
					<rect x="35.2" y="5.75" style="clip-path:url(#SVGID_00000079453200601362832430000000144299618685916844_);fill:#F68B24;" width="0.21" height="53.15"/>
				
					<rect x="35.41" y="5.75" style="clip-path:url(#SVGID_00000079453200601362832430000000144299618685916844_);fill:#F68B24;" width="0.21" height="53.15"/>
				
					<rect x="35.62" y="5.75" style="clip-path:url(#SVGID_00000079453200601362832430000000144299618685916844_);fill:#F68C24;" width="0.21" height="53.15"/>
				
					<rect x="35.83" y="5.75" style="clip-path:url(#SVGID_00000079453200601362832430000000144299618685916844_);fill:#F68D23;" width="0.21" height="53.15"/>
				
					<rect x="36.05" y="5.75" style="clip-path:url(#SVGID_00000079453200601362832430000000144299618685916844_);fill:#F78D23;" width="0.21" height="53.15"/>
				
					<rect x="36.26" y="5.75" style="clip-path:url(#SVGID_00000079453200601362832430000000144299618685916844_);fill:#F78E23;" width="0.21" height="53.15"/>
				
					<rect x="36.47" y="5.75" style="clip-path:url(#SVGID_00000079453200601362832430000000144299618685916844_);fill:#F78E23;" width="0.21" height="53.15"/>
				
					<rect x="36.68" y="5.75" style="clip-path:url(#SVGID_00000079453200601362832430000000144299618685916844_);fill:#F78F23;" width="0.21" height="53.15"/>
				
					<rect x="36.9" y="5.75" style="clip-path:url(#SVGID_00000079453200601362832430000000144299618685916844_);fill:#F79023;" width="0.21" height="53.15"/>
				
					<rect x="37.11" y="5.75" style="clip-path:url(#SVGID_00000079453200601362832430000000144299618685916844_);fill:#F79023;" width="0.21" height="53.15"/>
				
					<rect x="37.32" y="5.75" style="clip-path:url(#SVGID_00000079453200601362832430000000144299618685916844_);fill:#F79122;" width="0.21" height="53.15"/>
				
					<rect x="37.53" y="5.75" style="clip-path:url(#SVGID_00000079453200601362832430000000144299618685916844_);fill:#F79222;" width="0.21" height="53.15"/>
				
					<rect x="37.75" y="5.75" style="clip-path:url(#SVGID_00000079453200601362832430000000144299618685916844_);fill:#F79222;" width="0.21" height="53.15"/>
				
					<rect x="37.96" y="5.75" style="clip-path:url(#SVGID_00000079453200601362832430000000144299618685916844_);fill:#F79322;" width="0.21" height="53.15"/>
				
					<rect x="38.17" y="5.75" style="clip-path:url(#SVGID_00000079453200601362832430000000144299618685916844_);fill:#F79422;" width="0.21" height="53.15"/>
				
					<rect x="38.38" y="5.75" style="clip-path:url(#SVGID_00000079453200601362832430000000144299618685916844_);fill:#F79422;" width="0.21" height="53.15"/>
				
					<rect x="38.6" y="5.75" style="clip-path:url(#SVGID_00000079453200601362832430000000144299618685916844_);fill:#F79521;" width="0.21" height="53.15"/>
				
					<rect x="38.81" y="5.75" style="clip-path:url(#SVGID_00000079453200601362832430000000144299618685916844_);fill:#F89621;" width="0.21" height="53.15"/>
				
					<rect x="39.02" y="5.75" style="clip-path:url(#SVGID_00000079453200601362832430000000144299618685916844_);fill:#F89621;" width="4.13" height="53.15"/>
				
					<rect x="43.15" y="5.75" style="clip-path:url(#SVGID_00000079453200601362832430000000144299618685916844_);fill:#F89621;" width="4.13" height="53.15"/>
				
					<rect x="47.28" y="5.75" style="clip-path:url(#SVGID_00000079453200601362832430000000144299618685916844_);fill:#F89622;" width="4.13" height="53.15"/>
				
					<rect x="51.4" y="5.75" style="clip-path:url(#SVGID_00000079453200601362832430000000144299618685916844_);fill:#F89723;" width="4.13" height="53.15"/>
				
					<rect x="55.53" y="5.75" style="clip-path:url(#SVGID_00000079453200601362832430000000144299618685916844_);fill:#F89723;" width="4.13" height="53.15"/>
				<path style="clip-path:url(#SVGID_00000079453200601362832430000000144299618685916844_);fill:#F89723;" d="M59.66,58.91V5.75
					V58.91z"/>
			</g>
		</g>
	</g>
	<g>
		<path class="st73" d="M22.79,18.66c-0.15-0.21-0.35-0.33-0.58-0.34c-0.23-0.01-0.59,0.06-1.08,0.21
			c-0.49,0.15-0.89,0.24-1.21,0.28c-0.87,0.1-1.51-0.14-1.91-0.71c-0.21-0.3-0.31-0.62-0.31-0.98s0.12-0.71,0.34-1.06
			c0.22-0.35,0.53-0.67,0.92-0.94c0.4-0.28,0.8-0.45,1.21-0.53s0.79-0.04,1.15,0.1s0.65,0.38,0.88,0.71l-1.14,0.8
			c-0.18-0.25-0.4-0.4-0.66-0.42c-0.26-0.03-0.53,0.06-0.82,0.26c-0.28,0.2-0.46,0.41-0.53,0.63c-0.07,0.23-0.04,0.44,0.1,0.63
			c0.13,0.18,0.32,0.27,0.59,0.26c0.27,0,0.62-0.08,1.04-0.22c0.79-0.26,1.43-0.35,1.93-0.27c0.5,0.08,0.9,0.34,1.2,0.77
			c0.34,0.48,0.42,0.98,0.25,1.51c-0.17,0.53-0.57,1.01-1.18,1.44c-0.43,0.3-0.87,0.49-1.33,0.58s-0.88,0.06-1.25-0.08
			c-0.37-0.14-0.69-0.39-0.94-0.75l1.15-0.8c0.43,0.61,1.01,0.66,1.74,0.15c0.27-0.19,0.45-0.39,0.52-0.61
			C22.96,19.07,22.92,18.86,22.79,18.66z"/>
	</g>
	<g>
		<path class="st73" d="M28.44,16.32c-0.08-0.25-0.23-0.42-0.45-0.5c-0.22-0.08-0.58-0.12-1.09-0.13c-0.51-0.01-0.92-0.04-1.23-0.11
			c-0.86-0.17-1.39-0.59-1.6-1.27c-0.11-0.35-0.1-0.69,0.01-1.03c0.11-0.33,0.33-0.63,0.65-0.9c0.32-0.27,0.71-0.47,1.17-0.61
			c0.46-0.14,0.9-0.18,1.31-0.13s0.77,0.21,1.06,0.45c0.29,0.24,0.5,0.56,0.62,0.95l-1.33,0.41c-0.09-0.3-0.26-0.5-0.49-0.61
			c-0.24-0.11-0.53-0.11-0.86-0.01c-0.33,0.1-0.56,0.25-0.7,0.44c-0.14,0.19-0.17,0.4-0.11,0.63c0.06,0.21,0.22,0.35,0.48,0.43
			c0.25,0.08,0.61,0.12,1.06,0.11c0.83,0,1.47,0.11,1.92,0.34c0.45,0.23,0.75,0.6,0.91,1.1c0.17,0.56,0.1,1.06-0.23,1.51
			c-0.32,0.45-0.85,0.78-1.56,1c-0.5,0.15-0.98,0.2-1.45,0.14c-0.46-0.06-0.85-0.21-1.17-0.46c-0.31-0.25-0.53-0.59-0.66-1
			l1.34-0.41c0.22,0.71,0.76,0.94,1.61,0.68c0.32-0.1,0.54-0.24,0.68-0.42S28.51,16.56,28.44,16.32z"/>
	</g>
	<g>
		<path class="st73" d="M32.61,17.61l-1.39,0.09l-0.45-6.76l1.39-0.09L32.61,17.61z"/>
	</g>
	<g>
		<path class="st73" d="M37.34,16.21c0.04-0.26-0.02-0.48-0.18-0.64c-0.16-0.17-0.47-0.37-0.92-0.6c-0.45-0.23-0.81-0.45-1.06-0.64
			c-0.69-0.54-0.98-1.15-0.87-1.84c0.06-0.36,0.21-0.67,0.46-0.92c0.25-0.25,0.58-0.42,0.99-0.52c0.41-0.1,0.85-0.11,1.32-0.03
			c0.48,0.08,0.89,0.24,1.23,0.47c0.34,0.23,0.59,0.53,0.75,0.88c0.15,0.35,0.2,0.72,0.13,1.12l-1.38-0.23
			c0.05-0.31-0.01-0.56-0.17-0.76c-0.16-0.2-0.42-0.33-0.77-0.39c-0.34-0.05-0.61-0.03-0.82,0.08s-0.33,0.28-0.37,0.52
			c-0.04,0.22,0.04,0.42,0.24,0.6c0.2,0.18,0.49,0.37,0.9,0.57c0.74,0.37,1.27,0.75,1.57,1.16c0.3,0.41,0.41,0.87,0.32,1.39
			c-0.1,0.58-0.39,1-0.88,1.25c-0.49,0.26-1.11,0.32-1.85,0.2c-0.51-0.08-0.97-0.26-1.36-0.51c-0.39-0.26-0.67-0.57-0.84-0.93
			s-0.22-0.76-0.14-1.19l1.38,0.23c-0.12,0.74,0.26,1.18,1.14,1.32c0.33,0.05,0.59,0.03,0.8-0.07
			C37.18,16.62,37.3,16.45,37.34,16.21z"/>
	</g>
	<g>
		<path class="st73" d="M44.03,13.25l-1.01,5.11l3.99-3.34l1.58,0.93l-3.45,5.83l-1.21-0.71l0.94-1.59l1.75-2.68l-4.14,3.41
			l-0.82-0.49l1-5.27l-1.51,2.82l-0.94,1.59l-1.2-0.71l3.45-5.82L44.03,13.25z"/>
	</g>
</g>
</svg>
