<svg id="Group_2579" data-name="Group 2579" xmlns="http://www.w3.org/2000/svg" width="82.636" height="82.636" viewBox="0 0 82.636 82.636">
  <g id="Path_42753" data-name="Path 42753" fill="#4f83df">
    <path d="M 41.31787109375 80.63574981689453 C 36.00910949707031 80.63574981689453 30.86020851135254 79.59647369384766 26.01419639587402 77.54676818847656 C 21.33248329162598 75.56658172607422 17.1274585723877 72.73133087158203 13.51593399047852 69.11981201171875 C 9.90440845489502 65.50827026367188 7.069158554077148 61.30324554443359 5.088971138000488 56.62154769897461 C 3.039271116256714 51.77553176879883 1.999996066093445 46.62663269042969 1.999996066093445 41.31787109375 C 1.999996066093445 36.00910949707031 3.039271116256714 30.86020851135254 5.088971138000488 26.01419639587402 C 7.069158554077148 21.33248329162598 9.90440845489502 17.1274585723877 13.51593399047852 13.51593399047852 C 17.1274585723877 9.90440845489502 21.33248329162598 7.069158554077148 26.01419639587402 5.088971138000488 C 30.86020851135254 3.039271116256714 36.00910949707031 1.999996066093445 41.31787109375 1.999996066093445 C 46.62663269042969 1.999996066093445 51.77553176879883 3.039271116256714 56.62154769897461 5.088971138000488 C 61.30324554443359 7.069158554077148 65.50827026367188 9.90440845489502 69.11981201171875 13.51593399047852 C 72.73133087158203 17.1274585723877 75.56658172607422 21.33248329162598 77.54676818847656 26.01419639587402 C 79.59647369384766 30.86020851135254 80.63574981689453 36.00910949707031 80.63574981689453 41.31787109375 C 80.63574981689453 46.62663269042969 79.59647369384766 51.77553176879883 77.54676818847656 56.62154769897461 C 75.56658172607422 61.30324554443359 72.73133087158203 65.50827026367188 69.11981201171875 69.11981201171875 C 65.50827026367188 72.73133087158203 61.30324554443359 75.56658172607422 56.62154769897461 77.54676818847656 C 51.77553176879883 79.59647369384766 46.62663269042969 80.63574981689453 41.31787109375 80.63574981689453 Z" stroke="none"/>
    <path d="M 41.31787109375 4 C 36.27822875976562 4 31.39145660400391 4.986129760742188 26.79330062866211 6.930984497070312 C 22.3499870300293 8.810340881347656 18.35865783691406 11.50165557861328 14.93016052246094 14.93016052246094 C 11.50165557861328 18.35865783691406 8.810340881347656 22.3499870300293 6.930984497070312 26.79330062866211 C 4.986129760742188 31.39145660400391 4 36.27822875976562 4 41.31787109375 C 4 46.35751342773438 4.986129760742188 51.24428558349609 6.930984497070312 55.84244537353516 C 8.810340881347656 60.28575897216797 11.50165557861328 64.27708435058594 14.93016052246094 67.70558166503906 C 18.35865783691406 71.13408660888672 22.3499870300293 73.82540130615234 26.79330062866211 75.70475769042969 C 31.39145660400391 77.64961242675781 36.27822875976562 78.6357421875 41.31787109375 78.6357421875 C 46.35751342773438 78.6357421875 51.24428558349609 77.64961242675781 55.84244537353516 75.70475769042969 C 60.28575897216797 73.82540130615234 64.27708435058594 71.13408660888672 67.70558166503906 67.70558166503906 C 71.13408660888672 64.27708435058594 73.82540130615234 60.28575897216797 75.70475769042969 55.84244537353516 C 77.64961242675781 51.24428558349609 78.6357421875 46.35751342773438 78.6357421875 41.31787109375 C 78.6357421875 36.27822875976562 77.64961242675781 31.39145660400391 75.70475769042969 26.79330062866211 C 73.82540130615234 22.3499870300293 71.13408660888672 18.35865783691406 67.70558166503906 14.93016052246094 C 64.27708435058594 11.50165557861328 60.28575897216797 8.810340881347656 55.84244537353516 6.930984497070312 C 51.24428558349609 4.986129760742188 46.35751342773438 4 41.31787109375 4 M 41.31787109375 0 C 64.13710021972656 0 82.6357421875 18.49864196777344 82.6357421875 41.31787109375 C 82.6357421875 64.13710021972656 64.13710021972656 82.6357421875 41.31787109375 82.6357421875 C 18.49864196777344 82.6357421875 0 64.13710021972656 0 41.31787109375 C 0 18.49864196777344 18.49864196777344 0 41.31787109375 0 Z" stroke="none" fill="#f5f6fa"/>
  </g>
  <g id="Group_2310" data-name="Group 2310" transform="translate(24.903 29.549)">
    <path id="Path_42749" data-name="Path 42749" d="M6728.125-3381.9l11.346,11.348,22.633-22.631" transform="translate(-6728.125 3393.183)" fill="none" stroke="#fff" stroke-linecap="round" stroke-linejoin="round" stroke-width="4"/>
  </g>
</svg>
