<svg xmlns="http://www.w3.org/2000/svg" width="7.243" height="9.914" viewBox="0 0 7.243 9.914">
  <g id="Group_1701" data-name="Group 1701" transform="translate(-468.453 -166.586)" opacity="0.6">
    <path id="Icon_ionic-ios-arrow-back" data-name="Icon ionic-ios-arrow-back" d="M1.248,3.62,3.989.882A.518.518,0,0,0,3.256.151l-3.1,3.1a.517.517,0,0,0-.015.714L3.254,7.092a.518.518,0,1,0,.733-.731Z" transform="translate(468.453 176.5) rotate(-90)" fill="#302e2f"/>
    <path id="Icon_ionic-ios-arrow-back-2" data-name="Icon ionic-ios-arrow-back" d="M1.248,3.622,3.989,6.36a.518.518,0,0,1-.733.731l-3.1-3.1a.517.517,0,0,1-.015-.714L3.254.151a.518.518,0,0,1,.733.731Z" transform="translate(475.696 166.586) rotate(90)" fill="#302e2f"/>
  </g>
</svg>
