<svg xmlns="http://www.w3.org/2000/svg" xmlns:xlink="http://www.w3.org/1999/xlink" width="190" height="190" viewBox="-10 0 170 170">
 
  <g id="Group_2429" data-name="Group 2429" transform="translate(-359.5 -108.5)">
    <g transform="matrix(1, 0, 0, 1, 359.5, 108.5)" filter="url(#Path_42859)">
      <path id="Path_42859-2" data-name="Path 42859" d="M2.55,0h107.1a2.349,2.349,0,0,1,2.55,2.073V99.515a2.349,2.349,0,0,1-2.55,2.073H2.55A2.349,2.349,0,0,1,0,99.515V2.073A2.349,2.349,0,0,1,2.55,0Z" transform="translate(16.5 16.5)" fill="#fff"/>
    </g>
    <g id="Group_2428" data-name="Group 2428" transform="translate(422.749 161.231)">
      <g id="Rectangle_1756" data-name="Rectangle 1756" transform="translate(0.35 0.103)" fill="#fff" stroke="#cce5ff" stroke-linecap="round" stroke-width="1">
        <rect width="20" height="20" rx="4" stroke="none"/>
        <rect x="0.5" y="0.5" width="19" height="19" rx="3.5" fill="none"/>
      </g>
      <path id="Icon_ionic-md-arrow-round-back" data-name="Icon ionic-md-arrow-round-back" d="M10.273,4.282H3.433L6.086,1.744A1.057,1.057,0,0,0,6.086.3.945.945,0,0,0,4.7.3L.288,4.583A.974.974,0,0,0,0,5.3v.013a.974.974,0,0,0,.288.716L4.7,10.311a.945.945,0,0,0,1.381,0,1.057,1.057,0,0,0,0-1.445L3.43,6.328h6.84a1,1,0,0,0,.978-1.023A.99.99,0,0,0,10.273,4.282Z" transform="translate(15.072 4.487) rotate(90)" fill="#cce5ff"/>
    </g>
    <text id="Upload" transform="translate(413.099 196.333)" fill="#7e84a3" font-size="11" font-family="Poppins-Regular, Poppins" opacity="0.7"><tspan x="0" y="0">Upload</tspan></text>
  </g>
</svg>
