<svg xmlns="http://www.w3.org/2000/svg" width="65.686" height="65.686" viewBox="0 0 65.686 65.686">
  <g id="vuesax_bold_profile-circle" data-name="vuesax/bold/profile-circle" transform="translate(-492 -252)">
    <g id="profile-circle" transform="translate(492 252)">
      <path id="Vector" d="M54.739,27.369A27.369,27.369,0,1,0,8.84,47.458c0,.027,0,.027-.027.055.274.274.6.493.876.739a5.734,5.734,0,0,0,.465.383c.493.411,1.04.794,1.56,1.177.192.137.356.246.547.383a16.292,16.292,0,0,0,1.642.985c.192.109.411.246.6.356a16.676,16.676,0,0,0,1.724.821,7,7,0,0,0,.657.3q.9.369,1.806.657a6.159,6.159,0,0,0,.657.219c.657.192,1.314.356,1.971.52a3.884,3.884,0,0,0,.6.137,21.66,21.66,0,0,0,2.326.356,1.374,1.374,0,0,1,.328.055c.931.082,1.861.137,2.792.137s1.861-.055,2.764-.137a1.374,1.374,0,0,0,.328-.055,21.66,21.66,0,0,0,2.326-.356c.192-.027.383-.109.6-.137.657-.164,1.341-.3,1.971-.52a6.159,6.159,0,0,1,.657-.219c.6-.219,1.232-.411,1.806-.657a7,7,0,0,0,.657-.3q.862-.369,1.724-.821c.219-.109.411-.246.6-.356.547-.328,1.095-.629,1.642-.985A6.639,6.639,0,0,0,43,49.812c.547-.383,1.067-.766,1.56-1.177a5.735,5.735,0,0,1,.465-.383c.3-.246.6-.493.876-.739,0-.027,0-.027-.027-.055A27.221,27.221,0,0,0,54.739,27.369ZM40.89,40.972c-7.417-4.981-19.569-4.981-27.041,0a13.217,13.217,0,0,0-3.011,2.737,23.264,23.264,0,1,1,33.062,0A12.666,12.666,0,0,0,40.89,40.972Z" transform="translate(5.474 5.474)" fill="#5a607f"/>
      <path id="Vector-2" data-name="Vector" d="M10.263,0a10.25,10.25,0,0,0-.137,20.5h.493A10.253,10.253,0,0,0,10.263,0Z" transform="translate(22.58 18.967)" fill="#5a607f"/>
      <path id="Vector-3" data-name="Vector" d="M0,0H65.686V65.686H0Z" transform="translate(65.686 65.686) rotate(180)" fill="none" opacity="0"/>
    </g>
  </g>
</svg>
