<svg id="vuesax_bold_message-text" data-name="vuesax/bold/message-text" xmlns="http://www.w3.org/2000/svg" width="20.6" height="20.6" viewBox="0 0 20.6 20.6">
  <g id="message-text" transform="translate(0 0)">
    <path id="Vector" d="M0,0H20.6V20.6H0Z" fill="none" opacity="0"/>
    <path id="Vector-2" data-name="Vector" d="M12.017,0H5.15Q0,0,0,5.15V16.309a.861.861,0,0,0,.858.858H12.017q5.15,0,5.15-5.15V5.15Q17.167,0,12.017,0ZM10.3,11.373H4.292a.644.644,0,1,1,0-1.288H10.3a.644.644,0,1,1,0,1.288Zm2.575-4.292H4.292a.644.644,0,1,1,0-1.288h8.583a.644.644,0,1,1,0,1.288Z" transform="translate(1.717 1.717)" fill="#5a607f"/>
  </g>
</svg>
