<svg xmlns="http://www.w3.org/2000/svg" width="17.335" height="17.344" viewBox="0 0 17.335 17.344">
  <path id="Vector" d="M12.305,0H5.038C1.882,0,0,1.882,0,5.038V12.3c0,3.165,1.882,5.047,5.038,5.047H12.3c3.157,0,5.038-1.882,5.038-5.038V5.038C17.344,1.882,15.462,0,12.305,0ZM8.238,13.225a.429.429,0,0,1-.6.4,14.265,14.265,0,0,0-3.373-.989L4.1,12.618a1.142,1.142,0,0,1-.963-1.1V4.839a1.093,1.093,0,0,1,1.2-1.11A10.4,10.4,0,0,1,8.03,4.908a.421.421,0,0,1,.208.373ZM14.2,11.508a1.142,1.142,0,0,1-.963,1.1l-.182.017a15.089,15.089,0,0,0-3.356.98.429.429,0,0,1-.6-.4V5.272a.433.433,0,0,1,.217-.382,10.571,10.571,0,0,1,3.642-1.162H13A1.2,1.2,0,0,1,14.2,4.934Z" fill="#5a607f"/>
</svg>
