<svg xmlns="http://www.w3.org/2000/svg" xmlns:xlink="http://www.w3.org/1999/xlink" width="779.5" height="561.333" viewBox="0 0 779.5 561.333">
  <defs>
    <filter id="Path_128" x="0" y="0" width="779.5" height="561.333" filterUnits="userSpaceOnUse">
      <feOffset dx="2" dy="2" input="SourceAlpha"/>
      <feGaussianBlur stdDeviation="8" result="blur"/>
      <feFlood flood-opacity="0.161"/>
      <feComposite operator="in" in2="blur"/>
      <feComposite in="SourceGraphic"/>
    </filter>
  </defs>
  <g id="Group_496" data-name="Group 496" transform="translate(21.358 21.287)">
    <g transform="matrix(1, 0, 0, 1, -21.36, -21.29)" filter="url(#Path_128)">
      <path id="Path_128-2" data-name="Path 128" d="M713.676,0H17.824A17.824,17.824,0,0,0,0,17.824V495.509a17.824,17.824,0,0,0,17.824,17.824H713.676A17.824,17.824,0,0,0,731.5,495.509V17.824c0-.01,0-.02,0-.1A17.808,17.808,0,0,0,713.676,0Z" transform="translate(22 22)" fill="#fff"/>
    </g>
    <g id="Group_495" data-name="Group 495" transform="translate(0)">
      <path id="Path_129" data-name="Path 129" d="M2804.467,165.4H2865.4s57.37,76.857,115.548,160.512c18.836,29.093,57.222,84.441,75,116.546,33.9,61.208,38.785,93.921,38.785,93.921L2833.223,284.37Z" transform="translate(-2717.936 -165.4)" fill="#ffdc7f"/>
      <path id="Union_4" data-name="Union 4" d="M18.3,513.8l-.052-.058A18.537,18.537,0,0,1,.642,495.224c0-.373.011-.744.033-1.112L0,493.358S.8,126.589.622,17.967a18.475,18.475,0,0,1,1.8-7.584A16.924,16.924,0,0,1,6.8,4.764a18.156,18.156,0,0,1,5.323-3.2C14.848.579,15.995.4,20.5.4,42.172.4,86.626,0,86.626,0s231.4,246.757,277.317,333.025-41.4,181.021-41.4,181.021Z" transform="translate(0 0)" fill="#ffb900"/>
    </g>
  </g>
</svg>
