<svg xmlns="http://www.w3.org/2000/svg" xmlns:xlink="http://www.w3.org/1999/xlink" width="168.549" height="187.475" viewBox="0 0 168.549 187.475">
  <defs>
    <linearGradient id="linear-gradient" y1="0.5" x2="1" y2="0.5" gradientUnits="objectBoundingBox">
      <stop offset="0"/>
      <stop offset="0.577" stop-color="#5f5f5f"/>
      <stop offset="1" stop-color="#1a1a1a"/>
    </linearGradient>
  </defs>
  <g id="Group_540" data-name="Group 540" transform="translate(0 0)">
    <circle id="Ellipse_34" data-name="Ellipse 34" cx="60.811" cy="60.811" r="60.811" transform="translate(36.915 65.853)" fill="#f5f5f5"/>
    <path id="Path_810" data-name="Path 810" d="M86.772,541.682a51.706,51.706,0,0,0,23.05-4.949,63.374,63.374,0,0,0,20.695-16.189,41.25,41.25,0,0,0-1.54-8.121c-3.029-10.136-8.925-14.688-10.472-15.043-.108-.025-1.8-.4-1.8-.4H54.58a16.043,16.043,0,0,0-5.731,3.387c-6.823,6.184-7.875,16.8-8.062,19.112a68.774,68.774,0,0,0,21.786,16.743A55.094,55.094,0,0,0,86.772,541.682Z" transform="translate(11.641 -358.312)" fill="#ff6f4a"/>
    <g id="Group_539" data-name="Group 539" transform="translate(0 25.401) rotate(-9)">
      <g id="Group_382" data-name="Group 382" transform="translate(0 0)">
        <g id="Group_378" data-name="Group 378" transform="translate(0 0)">
          <g id="Group_376" data-name="Group 376">
            <path id="Path_693" data-name="Path 693" d="M81.16,0C54.108,10.695,27.09,21.475,0,32.074Q20.3,40.1,40.6,48.1l4.931,1.943a70.125,70.125,0,0,1,68.49.922q3.853-1.528,7.713-3.053,20.368-8.044,40.64-15.862C135.377,21.179,108.229,10.677,81.16,0Z" transform="translate(0.002 1.308)"/>
            <path id="Path_694" data-name="Path 694" d="M81.275,1.308c0-.523,0-.785,0-1.308C54.184,10.693,27.126,21.471,0,32.074c0,.523,0,.785,0,1.308C27.13,22.783,54.186,12,81.275,1.308Z" fill="#474747"/>
            <path id="Path_695" data-name="Path 695" d="M0,0C27.106,10.681,54.29,21.189,81.324,32.048v1.307C54.293,22.487,27.107,11.985,0,1.308,0,.785,0,.523,0,0Z" transform="translate(81.048 0)" fill="#5f5f5f"/>
          </g>
          <g id="Group_377" data-name="Group 377" transform="translate(36.417 28.213)">
            <path id="Path_696" data-name="Path 696" d="M42.866,0C30.84.021,5.141.413,0,12.092.042,22.359.01,41.978.01,41.978S13.3,28.62,30.754,26.074a74.547,74.547,0,0,1,27.847.032A57.707,57.707,0,0,1,85.69,40.338l.15-28.175C82.033.39,54.225-.019,42.866,0Z" transform="translate(0.218 0.161)" fill="url(#linear-gradient)"/>
            <path id="Path_697" data-name="Path 697" d="M83.354,8.082A14.163,14.163,0,0,0,77.613,4.3,66.444,66.444,0,0,0,60.837.872C53.325.353,49.569.094,44.957.014,43.146-.018,20.893-.305,9.243,4.476A14.477,14.477,0,0,0,2.9,9.2,16.964,16.964,0,0,0,0,15.651c.117,9.134-.008,12.476.108,21.61,1.516-.574,7.554-3.567,10.915-4.913C39.265,21.041,48.613,20.39,63.186,21.3a40.26,40.26,0,0,1,12.638,2.961,40.341,40.341,0,0,1,10.4,6.567q-.055-9.225-.112-18.452A15.893,15.893,0,0,0,83.354,8.082Z" transform="translate(0 0)" opacity="0.3"/>
          </g>
        </g>
        <g id="Group_381" data-name="Group 381" transform="translate(132.001 19.706)">
          <path id="Path_698" data-name="Path 698" d="M2.891,1.944q.538.326,1.058.657a3.534,3.534,0,0,1,.2.347C4.664,3.962,5.092,46.269,5.305,71c.36,0,.731,0,1.111-.02a19.233,19.233,0,0,0,2.761-.331A125.328,125.328,0,0,1,6.821,42.461S7.1,33.772,5.53,3.715a4.891,4.891,0,0,0-.653-2.346C3.7-.468,1.244-.037,0,.3Q1.416,1.05,2.891,1.944Z" transform="translate(0 0)" fill="#302e2f"/>
          <g id="Group_380" data-name="Group 380" transform="translate(3.769 68.612)">
            <path id="Path_699" data-name="Path 699" d="M1.416.822S-.862,6.725.361,11.995.719,22.112,1.415,22.607s.793-.3,1.426.118.763.795,1.619.675.437-.661,1.276-.55.807.7,1.767.093S9.07,21.692,9.3,21.6a6.112,6.112,0,0,0,.964-1.112s-1.635-4.982-1.719-7.211S8.631,5.5,7.331,3.412A16.248,16.248,0,0,0,4.479,0Z" transform="translate(0.499 3.217)" fill="#302e2f"/>
            <path id="Path_700" data-name="Path 700" d="M6.656,3.3A3.38,3.38,0,0,1,3.328,6.675,3.289,3.289,0,0,1,0,3.37,3.372,3.372,0,0,1,3.328,0,3.288,3.288,0,0,1,6.656,3.3Z" transform="translate(0 0)" fill="#302e2f"/>
            <g id="Group_379" data-name="Group 379" transform="translate(0.056 0.364)">
              <path id="Path_701" data-name="Path 701" d="M5.113,1.374C3.971,1,.85.119,0,0A3.285,3.285,0,0,0,.561.928,20.82,20.82,0,0,0,4.9,1.537C4.974,1.487,5.042,1.429,5.113,1.374Z" transform="translate(0.177 4.213)" fill="#302e2f"/>
              <path id="Path_702" data-name="Path 702" d="M5.576,2.3C4.725,1.863,2.282.61.856,0A3.375,3.375,0,0,0,0,.6a3.409,3.409,0,0,1,.346.05A36.135,36.135,0,0,1,5.633,2.99c0-.019.005-.037.005-.056A3.3,3.3,0,0,0,5.576,2.3Z" transform="translate(0.961 0)" fill="#302e2f"/>
              <path id="Path_703" data-name="Path 703" d="M.089,0A3.638,3.638,0,0,0,0,.362,4.148,4.148,0,0,1,.4.534,32.957,32.957,0,0,0,6.106,2.586a3.158,3.158,0,0,0,.166-.309C5.378,1.631,1.616.462.089,0Z" transform="translate(0 2.082)" fill="#302e2f"/>
            </g>
            <path id="Path_704" data-name="Path 704" d="M.365,18.019a22.669,22.669,0,0,0,0-3.714C.2,12.24.365,12.238.114,10.091S.239,4.1.03,5.244.785,8.52.7,11.938a30.752,30.752,0,0,0,.21,5.187s.5,1.242.839,1.287.629-1.27.629-1.27S2.295,10.4,2,7.872,1.246,2.365,1.54,1.1,2-.549,2.086,1.091s.335,5.343.545,7.446.261,8.511.571,9.012,1.415,1.576,1.261.272-.574-6.734-.573-8.8S3.11,4.642,3.751,6.408s1.061,7.024,1.061,8.541.178,3.411.76,3.189,1.8-.835,1.8-.835l-.63,1.015s-.947.28-1.353.433-.3.68-1.5.7-1.07.369-2.263-.263S.365,18.019.365,18.019Z" transform="translate(2.431 7.516)" fill="#302e2f"/>
          </g>
        </g>
      </g>
    </g>
    <circle id="Ellipse_40" data-name="Ellipse 40" cx="24.178" cy="24.178" r="24.178" transform="translate(73.892 84.622)" fill="#f3a974"/>
  </g>
</svg>
