<svg xmlns="http://www.w3.org/2000/svg" width="24" height="24" viewBox="0 0 24 24">
  <g id="document-filter" transform="translate(-620 -316)">
    <path id="Vector" d="M0,0H24V24H0Z" transform="translate(644 340) rotate(180)" fill="none" opacity="0"/>
    <path id="Vector-2" data-name="Vector" d="M1.23,0H9.36a1.24,1.24,0,0,1,1.23,1.25V2.62a2.316,2.316,0,0,1-.62,1.43L7.33,6.43a2.019,2.019,0,0,0-.61,1.43v2.68a1.427,1.427,0,0,1-.55,1.06l-.87.57a1.254,1.254,0,0,1-1.91-1.06V7.8A2.462,2.462,0,0,0,2.9,6.49L.56,3.99A2.063,2.063,0,0,1,0,2.75V1.31A1.255,1.255,0,0,1,1.23,0Z" transform="translate(622 317)" fill="#5a607f"/>
    <path id="Vector-3" data-name="Vector" d="M15,0H12.6a.5.5,0,0,0-.5.5V1.62a3.81,3.81,0,0,1-1.05,2.49L8.33,6.54c-.03.07-.08.17-.11.25V9.54a2.907,2.907,0,0,1-1.28,2.35l-.82.53a2.762,2.762,0,0,1-1.48.43A2.792,2.792,0,0,1,3.3,12.5,2.731,2.731,0,0,1,2,10.87V8.21a.469.469,0,0,0-.15-.35l-1-1A.5.5,0,0,0,0,7.21V15a5,5,0,0,0,5,5H15a5,5,0,0,0,5-5V5A5,5,0,0,0,15,0Zm1,15.75H9a.75.75,0,0,1,0-1.5h7a.75.75,0,0,1,0,1.5Zm0-4H11a.75.75,0,0,1,0-1.5h5a.75.75,0,0,1,0,1.5Z" transform="translate(622 318)" fill="#5a607f"/>
  </g>
</svg>
