<svg xmlns="http://www.w3.org/2000/svg" width="20" height="16.364" viewBox="0 0 20 16.364">
  <path id="noun-download-4549492" d="M108.786,73.635h-2.127a2.687,2.687,0,0,1-1.927-.8l-1.509-1.509A4.54,4.54,0,0,0,100,70H97.877a4.547,4.547,0,0,0-4.545,4.545v7.273h0a4.547,4.547,0,0,0,4.545,4.545h10.909a4.547,4.547,0,0,0,4.545-4.545V78.181a4.547,4.547,0,0,0-4.545-4.545Zm-2.994,7.915-1.818,1.818a.909.909,0,0,1-1.285,0L100.87,81.55a.909.909,0,0,1,1.285-1.285l.266.266v-3.26a.909.909,0,1,1,1.818,0v3.26l.266-.266h0a.909.909,0,0,1,1.285,1.285Z" transform="translate(-93.331 -69.999)" fill="#5a607f"/>
</svg>
