<svg width="210" height="167" xmlns="http://www.w3.org/2000/svg">
 <g>
  <title>Layer 1</title>
  <defs transform="translate(-490.355 0) translate(0 195.955)">
   <clipPath id="svg_2">
    <rect id="svg_20" data-name="Rectangle 1785" width="1003" height="187" rx="14" fill="#e6e9f4" y="289.95532" x="-147.35501"/>
   </clipPath>
  </defs>
  <g id="svg_3" data-name="Group 2406">
   <g id="svg_5" data-name="Group 2405">
    <path id="svg_19" data-name="Path 42846" d="m169.11955,15.25234c-7.029,-4.062 -20.424,-11.418 -25.924,-13.351c-7.857,-2.764 -16.691,-0.554 -17.109,0.114c-0.252,0.4 1.268,10.693 7.026,15.974c4.21,3.861 16.462,12.358 24.28,16.658c0,0 4.366,-1.317 8.859,-8.5s2.868,-10.895 2.868,-10.895z" fill="none" stroke="#f99300" stroke-width="1.051"/>
    <path id="svg_18" data-name="Path 42847" d="m141.13755,24.19134c-0.068,2.513 0.051,7.531 0.157,11.116a8.35,8.35 0 0 0 3.424,6.5c4.447,3.25 12.313,8.981 16.623,12c-1.717,-8.558 -4.267,-19.3 -4.267,-19.3" fill="none" stroke="#f99300" stroke-width="1.051"/>
    <path id="svg_17" data-name="Path 42848" d="m152.14055,5.89534c2.283,-1.186 7.271,-3.519 10.763,-5.126a8.359,8.359 0 0 1 7.41,0.2c4.876,2.58 13.435,7.125 18.026,9.668c-8.445,2.2 -19.218,4.613 -19.218,4.613" fill="none" stroke="#f99300" stroke-width="1.051"/>
    <path id="svg_16" data-name="Path 42849" d="m161.57455,32.03734c3.16,5.211 10.954,10.221 17.079,9.46a30.218,30.218 0 0 1 -2.511,-3.277c4.421,2.867 9.76,3.689 12.529,2.956c-1.246,-4.167 -3.931,-7.182 -9.044,-11a6.217,6.217 0 0 0 5.313,-0.524s-7.359,-7.529 -15.749,-9.8" fill="none" stroke="#f99300" stroke-width="1.051"/>
    <path id="svg_15" data-name="Path 42850" d="m155.20554,33.55834c1.36,-0.455 11.6,-7.986 12.149,-19.427" fill="none" stroke="#f99300" stroke-width="1.051"/>
    <path id="svg_14" data-name="Path 42851" d="m143.29555,7.65634a4.063,4.063 0 1 1 -5.6,1.291a4.064,4.064 0 0 1 5.6,-1.291z" fill="none" stroke="#f99300" stroke-width="1.051"/>
    <path id="svg_13" data-name="Path 42852" d="m142.44355,9.01834a2.457,2.457 0 1 1 -3.385,0.781a2.457,2.457 0 0 1 3.385,-0.781z" fill="none" stroke="#f99300" stroke-width="1.051"/>
    <path id="svg_12" data-name="Path 42853" d="m155.23055,15.11934a4.063,4.063 0 1 1 -5.6,1.291a4.063,4.063 0 0 1 5.6,-1.291z" fill="none" stroke="#f99300" stroke-width="1.051"/>
    <path id="svg_11" data-name="Path 42854" d="m154.37855,16.48234a2.457,2.457 0 1 1 -3.385,0.781a2.457,2.457 0 0 1 3.385,-0.781z" fill="none" stroke="#f99300" stroke-width="1.051"/>
    <line id="svg_10" data-name="Line 63" y1="7.94534" x2="170.31255" fill="none" stroke="#f99300" stroke-width="1.051" y2="0.97234" x1="156.00955"/>
    <line id="svg_9" data-name="Line 64" x1="184.58355" y2="13.61934" fill="none" stroke="#f99300" stroke-width="1.051" x2="165.70655" y1="8.87434"/>
    <line id="svg_8" data-name="Line 65" x2="144.74655" y2="42.12034" fill="none" stroke="#f99300" stroke-width="1.051" y1="26.22634" x1="143.98855"/>
    <line id="svg_7" data-name="Line 66" x1="157.45355" y1="50.96134" fill="none" stroke="#f99300" stroke-width="1.051" y2="32.90934" x2="153.94655"/>
    <path id="svg_6" data-name="Path 42855" d="m188.78655,40.76634c14.732,7.775 20.87,25.781 9,34.784" fill="none" stroke="#f99300" stroke-linecap="round" stroke-linejoin="round" stroke-width="2" stroke-dasharray="10 10"/>
   </g>
   <path id="svg_4" data-name="Path 42856" d="m0,146.03618c35.6,13.914 99.878,20.637 137.09,-19.233c28.645,-30.692 9.462,-72.152 -18.4,-73.961c-19.5,-1.266 -23.026,27.05 -17.026,36.55s25.368,30.649 58.464,12.649s40.75,-29.418 40.75,-29.418" fill="none" stroke="#f99300" stroke-linecap="round" stroke-linejoin="round" stroke-width="2" stroke-dasharray="10 10"/>
  </g>
 </g>
</svg>